<svg xmlns="http://www.w3.org/2000/svg" width="111" height="30" viewBox="0 0 111 30">
  <path fill="#999" fill-rule="evenodd" d="M18.128,13.784 C18.161,17.647 21.507,18.924 21.548,18.938 C21.528,19.028 21.024,20.781 19.769,22.561 C18.721,24.128 17.623,25.66 15.879,25.688 C14.185,25.727 13.615,24.691 11.672,24.691 C9.711,24.691 9.104,25.66 7.479,25.727 C5.818,25.788 4.549,24.054 3.463,22.501 C1.292,19.33 -0.398,13.565 1.868,9.642 C2.966,7.718 4.968,6.479 7.108,6.446 C8.771,6.412 10.314,7.569 11.336,7.569 C12.338,7.569 14.246,6.185 16.213,6.392 C17.036,6.416 19.378,6.717 20.889,8.92 C20.767,8.993 18.099,10.561 18.128,13.784 Z M14.928,4.306 C14.016,5.382 12.557,6.205 11.136,6.099 C10.95,4.647 11.67,3.103 12.476,2.161 C13.387,1.092 14.969,0.273 16.234,0.217 C16.4,1.726 15.802,3.213 14.928,4.306 Z M41.645,25.504 L39.374,25.504 L38.13,21.595 L33.806,21.595 L32.621,25.504 L30.41,25.504 L34.694,12.196 L37.34,12.196 L41.645,25.504 Z M37.755,19.955 L36.63,16.48 C36.511,16.125 36.288,15.289 35.959,13.973 L35.919,13.973 C35.788,14.539 35.577,15.375 35.287,16.48 L34.182,19.955 L37.755,19.955 Z M52.662,20.588 C52.662,22.22 52.221,23.51 51.339,24.457 C50.549,25.3 49.568,25.721 48.397,25.721 C47.133,25.721 46.225,25.267 45.672,24.359 L45.632,24.359 L45.632,29.414 L43.5,29.414 L43.5,19.067 C43.5,18.041 43.473,16.988 43.421,15.908 L45.296,15.908 L45.415,17.429 L45.455,17.429 C46.166,16.283 47.245,15.711 48.693,15.711 C49.825,15.711 50.77,16.158 51.526,17.053 C52.284,17.949 52.662,19.127 52.662,20.588 Z M50.49,20.666 C50.49,19.732 50.28,18.962 49.858,18.356 C49.397,17.724 48.778,17.408 48.002,17.408 C47.476,17.408 46.998,17.584 46.571,17.931 C46.143,18.281 45.863,18.738 45.732,19.304 C45.666,19.568 45.633,19.784 45.633,19.954 L45.633,21.554 C45.633,22.252 45.847,22.841 46.275,23.322 C46.703,23.803 47.259,24.043 47.943,24.043 C48.746,24.043 49.371,23.733 49.818,23.115 C50.266,22.496 50.49,21.68 50.49,20.666 Z M63.699,20.588 C63.699,22.22 63.258,23.51 62.375,24.457 C61.586,25.3 60.605,25.721 59.434,25.721 C58.17,25.721 57.262,25.267 56.71,24.359 L56.67,24.359 L56.67,29.414 L54.538,29.414 L54.538,19.067 C54.538,18.041 54.511,16.988 54.459,15.908 L56.334,15.908 L56.453,17.429 L56.493,17.429 C57.203,16.283 58.282,15.711 59.731,15.711 C60.862,15.711 61.807,16.158 62.565,17.053 C63.32,17.949 63.699,19.127 63.699,20.588 Z M61.527,20.666 C61.527,19.732 61.316,18.962 60.894,18.356 C60.433,17.724 59.816,17.408 59.039,17.408 C58.512,17.408 58.035,17.584 57.607,17.931 C57.179,18.281 56.9,18.738 56.769,19.304 C56.704,19.568 56.67,19.784 56.67,19.954 L56.67,21.554 C56.67,22.252 56.884,22.841 57.31,23.322 C57.738,23.802 58.294,24.043 58.98,24.043 C59.783,24.043 60.408,23.733 60.855,23.115 C61.303,22.496 61.527,21.68 61.527,20.666 Z M76.039,21.772 C76.039,22.904 75.646,23.825 74.857,24.536 C73.99,25.313 72.783,25.701 71.232,25.701 C69.8,25.701 68.652,25.425 67.783,24.872 L68.277,23.095 C69.213,23.661 70.24,23.945 71.359,23.945 C72.162,23.945 72.787,23.763 73.236,23.401 C73.683,23.039 73.906,22.553 73.906,21.947 C73.906,21.407 73.722,20.952 73.353,20.583 C72.986,20.214 72.373,19.871 71.517,19.554 C69.187,18.685 68.023,17.412 68.023,15.738 C68.023,14.644 68.431,13.747 69.248,13.049 C70.062,12.35 71.148,12.001 72.506,12.001 C73.717,12.001 74.723,12.212 75.526,12.633 L74.993,14.371 C74.243,13.963 73.395,13.759 72.446,13.759 C71.696,13.759 71.11,13.944 70.69,14.312 C70.335,14.641 70.157,15.042 70.157,15.517 C70.157,16.043 70.36,16.478 70.768,16.82 C71.123,17.136 71.768,17.478 72.704,17.847 C73.849,18.308 74.69,18.847 75.231,19.465 C75.77,20.081 76.039,20.852 76.039,21.772 Z M83.088,17.508 L80.738,17.508 L80.738,22.167 C80.738,23.352 81.152,23.944 81.982,23.944 C82.363,23.944 82.679,23.911 82.929,23.845 L82.988,25.464 C82.568,25.621 82.015,25.7 81.33,25.7 C80.488,25.7 79.83,25.443 79.355,24.93 C78.882,24.416 78.644,23.554 78.644,22.343 L78.644,17.506 L77.244,17.506 L77.244,15.906 L78.644,15.906 L78.644,14.149 L80.738,13.517 L80.738,15.906 L83.088,15.906 L83.088,17.508 Z M93.691,20.627 C93.691,22.102 93.269,23.313 92.427,24.26 C91.544,25.235 90.372,25.721 88.911,25.721 C87.503,25.721 86.382,25.254 85.546,24.32 C84.71,23.386 84.292,22.207 84.292,20.786 C84.292,19.299 84.722,18.081 85.585,17.134 C86.446,16.186 87.608,15.712 89.069,15.712 C90.477,15.712 91.61,16.179 92.465,17.114 C93.283,18.021 93.691,19.192 93.691,20.627 Z M91.479,20.696 C91.479,19.811 91.29,19.052 90.907,18.419 C90.46,17.653 89.821,17.271 88.993,17.271 C88.136,17.271 87.485,17.654 87.038,18.419 C86.655,19.053 86.466,19.824 86.466,20.736 C86.466,21.621 86.655,22.38 87.038,23.012 C87.499,23.778 88.143,24.16 88.974,24.16 C89.788,24.16 90.427,23.77 90.888,22.992 C91.281,22.347 91.479,21.58 91.479,20.696 Z M100.621,17.783 C100.41,17.744 100.185,17.724 99.949,17.724 C99.199,17.724 98.619,18.007 98.211,18.574 C97.856,19.074 97.678,19.706 97.678,20.469 L97.678,25.504 L95.547,25.504 L95.567,18.93 C95.567,17.824 95.54,16.817 95.487,15.909 L97.344,15.909 L97.422,17.745 L97.481,17.745 C97.706,17.114 98.061,16.606 98.547,16.225 C99.022,15.882 99.535,15.711 100.088,15.711 C100.285,15.711 100.463,15.725 100.621,15.75 L100.621,17.783 Z M110.156,20.252 C110.156,20.634 110.131,20.956 110.078,21.219 L103.682,21.219 C103.707,22.167 104.016,22.892 104.61,23.392 C105.149,23.839 105.846,24.063 106.702,24.063 C107.649,24.063 108.513,23.912 109.29,23.609 L109.624,25.089 C108.716,25.485 107.644,25.682 106.407,25.682 C104.919,25.682 103.751,25.244 102.901,24.369 C102.053,23.494 101.628,22.319 101.628,20.845 C101.628,19.398 102.023,18.193 102.814,17.232 C103.642,16.206 104.761,15.693 106.169,15.693 C107.552,15.693 108.599,16.206 109.31,17.232 C109.873,18.047 110.156,19.055 110.156,20.252 Z M108.123,19.699 C108.137,19.067 107.998,18.521 107.709,18.06 C107.34,17.467 106.773,17.171 106.01,17.171 C105.313,17.171 104.746,17.46 104.313,18.04 C103.958,18.501 103.747,19.054 103.682,19.698 L108.123,19.698 L108.123,19.699 Z M31.424,1.273 C31.651,1.137 31.907,1.023 32.195,0.929 C32.482,0.835 32.82,0.788 33.209,0.788 C33.836,0.788 34.33,0.937 34.692,1.234 C35.054,1.531 35.235,1.932 35.235,2.437 C35.235,2.838 35.114,3.174 34.872,3.446 C34.63,3.718 34.32,3.899 33.945,3.989 L33.945,4.018 C34.152,4.051 34.348,4.107 34.532,4.188 C34.717,4.269 34.879,4.377 35.017,4.513 C35.156,4.649 35.266,4.807 35.347,4.989 C35.427,5.17 35.468,5.37 35.468,5.591 C35.468,5.953 35.395,6.257 35.249,6.503 C35.103,6.749 34.913,6.949 34.677,7.105 C34.442,7.26 34.178,7.372 33.887,7.439 C33.596,7.506 33.305,7.541 33.014,7.541 C32.703,7.541 32.396,7.508 32.092,7.444 C31.788,7.38 31.507,7.273 31.248,7.124 L31.51,6.319 C31.678,6.403 31.895,6.484 32.16,6.562 C32.425,6.64 32.693,6.678 32.965,6.678 C33.411,6.678 33.756,6.578 33.998,6.378 C34.24,6.177 34.362,5.909 34.362,5.573 C34.362,5.346 34.313,5.161 34.216,5.015 C34.118,4.869 33.992,4.755 33.837,4.67 C33.682,4.586 33.509,4.528 33.318,4.496 C33.127,4.464 32.938,4.447 32.751,4.447 L32.314,4.447 L32.314,3.65 L32.751,3.65 C32.951,3.65 33.137,3.625 33.309,3.572 C33.48,3.521 33.629,3.448 33.755,3.354 C33.881,3.26 33.98,3.148 34.051,3.019 C34.121,2.89 34.157,2.744 34.157,2.582 C34.157,2.291 34.053,2.063 33.846,1.898 C33.639,1.733 33.361,1.65 33.012,1.65 C32.773,1.65 32.533,1.689 32.294,1.766 C32.055,1.844 31.841,1.928 31.653,2.018 L31.424,1.273 Z M39.755,7.433 L39.678,6.89 L39.649,6.89 C39.333,7.323 38.874,7.54 38.272,7.54 C38.058,7.54 37.865,7.504 37.69,7.433 C37.515,7.362 37.363,7.265 37.234,7.142 C37.104,7.019 37.005,6.874 36.933,6.705 C36.862,6.537 36.827,6.352 36.827,6.152 C36.827,5.564 37.066,5.122 37.545,4.828 C38.024,4.534 38.702,4.387 39.582,4.387 L39.582,4.3 C39.582,3.679 39.256,3.369 38.604,3.369 C38.139,3.369 37.729,3.486 37.375,3.718 L37.162,3.03 C37.595,2.759 38.134,2.623 38.779,2.623 C40.012,2.623 40.629,3.273 40.629,4.573 L40.629,6.309 C40.629,6.794 40.652,7.169 40.697,7.434 L39.755,7.434 L39.755,7.433 Z M39.61,5.086 C39.025,5.086 38.589,5.16 38.303,5.309 C38.017,5.458 37.874,5.701 37.874,6.037 C37.874,6.283 37.941,6.467 38.076,6.59 C38.211,6.713 38.382,6.774 38.588,6.774 C38.723,6.774 38.851,6.75 38.974,6.701 C39.096,6.653 39.203,6.586 39.296,6.502 C39.39,6.418 39.465,6.316 39.524,6.196 C39.582,6.076 39.61,5.949 39.61,5.813 L39.61,5.086 Z M45.683,2.719 L45.683,3.582 L43.723,3.582 L43.723,7.433 L42.676,7.433 L42.676,2.719 L45.683,2.719 Z M51.677,5.018 C51.677,5.393 51.625,5.736 51.522,6.046 C51.418,6.357 51.275,6.622 51.09,6.841 C50.906,7.061 50.686,7.233 50.431,7.355 C50.175,7.478 49.893,7.54 49.582,7.54 C48.961,7.54 48.515,7.317 48.243,6.871 L48.223,6.871 L48.223,9.354 L47.175,9.354 L47.175,4.271 C47.175,4.019 47.172,3.765 47.165,3.509 C47.159,3.254 47.149,2.99 47.137,2.718 L48.058,2.718 L48.117,3.465 L48.137,3.465 C48.486,2.903 49.016,2.621 49.728,2.621 C50.005,2.621 50.263,2.679 50.499,2.795 C50.735,2.912 50.94,3.075 51.115,3.285 C51.29,3.495 51.427,3.747 51.527,4.042 C51.627,4.337 51.677,4.662 51.677,5.018 Z M50.611,5.057 C50.611,4.824 50.583,4.609 50.528,4.412 C50.473,4.215 50.392,4.047 50.286,3.908 C50.18,3.769 50.05,3.659 49.898,3.578 C49.746,3.497 49.576,3.457 49.388,3.457 C49.24,3.457 49.094,3.49 48.951,3.554 C48.808,3.618 48.684,3.706 48.578,3.816 C48.471,3.926 48.386,4.059 48.321,4.214 C48.256,4.369 48.223,4.534 48.223,4.709 L48.223,5.495 C48.223,5.669 48.25,5.831 48.306,5.98 C48.361,6.129 48.438,6.258 48.538,6.368 C48.638,6.478 48.758,6.564 48.897,6.625 C49.036,6.687 49.189,6.717 49.357,6.717 C49.752,6.717 50.059,6.567 50.279,6.266 C50.499,5.965 50.611,5.561 50.611,5.057 Z M57.305,2.719 L56.111,5.988 C55.827,6.764 55.55,7.399 55.282,7.894 C55.013,8.389 54.757,8.749 54.511,8.976 C54.149,9.299 53.764,9.497 53.356,9.567 L53.104,8.685 C53.375,8.614 53.634,8.475 53.88,8.268 C54.125,8.061 54.322,7.803 54.472,7.492 C54.524,7.389 54.549,7.318 54.549,7.279 C54.549,7.24 54.529,7.166 54.491,7.056 L52.783,2.72 L53.937,2.72 L54.83,5.349 C54.876,5.472 54.921,5.611 54.966,5.766 C55.012,5.921 55.06,6.093 55.112,6.28 L55.132,6.28 C55.164,6.176 55.2,6.046 55.238,5.887 C55.277,5.729 55.329,5.546 55.393,5.339 L56.189,2.72 L57.305,2.72 L57.305,2.719 Z M59.119,4.678 L59.603,4.678 C59.958,4.678 60.234,4.614 60.427,4.484 C60.62,4.354 60.718,4.196 60.718,4.008 C60.718,3.814 60.636,3.659 60.47,3.543 C60.306,3.427 60.077,3.368 59.786,3.368 C59.598,3.368 59.409,3.399 59.22,3.46 C59.029,3.522 58.853,3.598 58.691,3.688 L58.42,3.01 C58.691,2.862 58.961,2.76 59.231,2.705 C59.499,2.65 59.768,2.622 60.04,2.622 C60.255,2.622 60.47,2.643 60.686,2.685 C60.901,2.727 61.094,2.798 61.262,2.898 C61.43,2.998 61.569,3.129 61.674,3.291 C61.781,3.453 61.834,3.653 61.834,3.893 C61.834,4.042 61.805,4.173 61.746,4.286 C61.689,4.399 61.611,4.499 61.514,4.586 C61.418,4.673 61.309,4.745 61.19,4.799 C61.071,4.854 60.948,4.895 60.827,4.921 L60.827,4.95 C60.981,4.97 61.132,5.009 61.278,5.067 C61.423,5.125 61.553,5.201 61.671,5.295 C61.786,5.389 61.88,5.502 61.952,5.634 C62.022,5.767 62.057,5.917 62.057,6.085 C62.057,6.363 61.991,6.596 61.854,6.783 C61.719,6.971 61.545,7.119 61.334,7.229 C61.125,7.339 60.893,7.418 60.641,7.467 C60.389,7.515 60.143,7.54 59.905,7.54 C59.614,7.54 59.325,7.509 59.042,7.448 C58.757,7.386 58.501,7.291 58.274,7.162 L58.547,6.473 C58.715,6.564 58.906,6.64 59.123,6.701 C59.34,6.762 59.561,6.793 59.787,6.793 C60.142,6.793 60.416,6.724 60.607,6.585 C60.796,6.446 60.892,6.273 60.892,6.066 C60.892,5.93 60.861,5.816 60.796,5.722 C60.731,5.628 60.64,5.552 60.525,5.494 C60.408,5.436 60.273,5.395 60.117,5.373 C59.963,5.35 59.793,5.339 59.613,5.339 L59.119,5.339 L59.119,4.678 Z M64.715,2.719 L64.715,4.387 C64.715,4.769 64.709,5.112 64.695,5.415 C64.681,5.719 64.666,6.039 64.646,6.375 L64.666,6.394 C64.789,6.148 64.91,5.908 65.029,5.671 C65.15,5.435 65.271,5.194 65.394,4.948 L66.558,2.717 L67.915,2.717 L67.915,7.431 L66.925,7.431 L66.925,5.763 C66.925,5.414 66.935,5.065 66.95,4.716 C66.966,4.366 66.983,4.014 67.003,3.658 L66.954,3.658 C66.845,3.949 66.735,4.201 66.624,4.415 C66.515,4.628 66.405,4.848 66.296,5.075 C66.095,5.463 65.896,5.851 65.698,6.239 C65.501,6.627 65.292,7.025 65.073,7.432 L63.716,7.432 L63.716,2.719 L64.715,2.719 Z M73.445,2.719 L73.445,3.582 L72.01,3.582 L72.01,7.433 L70.98,7.433 L70.98,3.582 L69.554,3.582 L69.554,2.719 L73.445,2.719 Z M78.789,4.853 C78.789,4.943 78.785,5.029 78.779,5.11 C78.773,5.191 78.763,5.264 78.75,5.328 L75.607,5.328 C75.621,5.774 75.761,6.119 76.029,6.361 C76.297,6.603 76.652,6.725 77.091,6.725 C77.55,6.725 77.974,6.651 78.362,6.502 L78.526,7.23 C78.079,7.424 77.553,7.521 76.944,7.521 C76.577,7.521 76.247,7.464 75.956,7.351 C75.665,7.238 75.419,7.078 75.218,6.871 C75.019,6.664 74.864,6.415 74.757,6.124 C74.652,5.833 74.599,5.507 74.599,5.145 C74.599,4.783 74.652,4.448 74.757,4.141 C74.864,3.834 75.015,3.567 75.208,3.341 C75.403,3.114 75.638,2.937 75.911,2.807 C76.186,2.678 76.493,2.613 76.829,2.613 C77.126,2.613 77.395,2.666 77.64,2.773 C77.882,2.879 78.089,3.031 78.259,3.229 C78.431,3.426 78.562,3.663 78.652,3.937 C78.744,4.211 78.789,4.517 78.789,4.853 Z M77.789,4.582 C77.789,4.213 77.701,3.914 77.523,3.685 C77.345,3.456 77.088,3.34 76.752,3.34 C76.447,3.34 76.19,3.456 75.977,3.689 C75.764,3.922 75.641,4.219 75.608,4.582 L77.789,4.582 Z M83.01,2.758 C83.198,2.726 83.436,2.7 83.727,2.68 C84.018,2.66 84.315,2.651 84.62,2.651 C84.813,2.651 85.032,2.663 85.274,2.685 C85.516,2.707 85.749,2.759 85.967,2.84 C86.188,2.921 86.371,3.042 86.52,3.204 C86.669,3.366 86.745,3.585 86.745,3.863 C86.745,4.006 86.718,4.134 86.667,4.246 C86.614,4.359 86.546,4.458 86.458,4.542 C86.37,4.626 86.27,4.696 86.157,4.75 C86.044,4.805 85.927,4.846 85.803,4.871 L85.813,4.9 C86.155,4.958 86.434,5.081 86.647,5.269 C86.86,5.457 86.967,5.715 86.967,6.045 C86.967,6.375 86.875,6.637 86.696,6.831 C86.514,7.025 86.292,7.171 86.026,7.268 C85.76,7.365 85.481,7.427 85.186,7.453 C84.893,7.478 84.629,7.492 84.397,7.492 C84.137,7.492 83.883,7.486 83.635,7.472 C83.385,7.459 83.178,7.446 83.01,7.433 L83.01,2.758 Z M84.018,4.64 L84.551,4.64 C84.713,4.64 84.867,4.629 85.012,4.606 C85.158,4.584 85.285,4.548 85.395,4.5 C85.506,4.451 85.59,4.387 85.653,4.306 C85.714,4.225 85.745,4.127 85.745,4.01 C85.745,3.797 85.657,3.64 85.477,3.54 C85.299,3.44 85.02,3.39 84.639,3.39 C84.53,3.39 84.434,3.393 84.352,3.4 C84.272,3.406 84.161,3.416 84.018,3.429 L84.018,4.64 Z M84.018,6.725 C84.147,6.738 84.256,6.747 84.342,6.754 C84.43,6.761 84.531,6.764 84.649,6.764 C84.792,6.764 84.936,6.755 85.085,6.735 C85.233,6.716 85.37,6.679 85.493,6.624 C85.616,6.57 85.714,6.496 85.788,6.402 C85.862,6.309 85.901,6.185 85.901,6.031 C85.901,5.761 85.78,5.575 85.542,5.472 C85.302,5.369 84.98,5.318 84.571,5.318 L84.018,5.318 L84.018,6.725 Z" transform="translate(-1)"/>
</svg>
