<?xml version="1.0" encoding="utf-8"?>
<!-- Generator: Adobe Illustrator 21.1.0, SVG Export Plug-In . SVG Version: 6.00 Build 0)  -->
<svg version="1.1" id="Слой_1" xmlns="http://www.w3.org/2000/svg" xmlns:xlink="http://www.w3.org/1999/xlink" x="0px" y="0px"
	 viewBox="0 0 32 32" style="enable-background:new 0 0 32 32;" xml:space="preserve">
<style type="text/css">
	.st0{fill:url(#Combined-Shape_1_);}
</style>
<g id="Banking">
	
		<linearGradient id="Combined-Shape_1_" gradientUnits="userSpaceOnUse" x1="-642.3073" y1="385.5337" x2="-641.3073" y2="384.7434" gradientTransform="matrix(28 0 0 -24 17984 9262)">
		<stop  offset="0" style="stop-color:#FF7700"/>
		<stop  offset="1" style="stop-color:#FF8C00"/>
	</linearGradient>
	<path id="Combined-Shape" class="st0" d="M28.9,27.2c1.4,0,1.4,1.8,0.1,1.8H3c-1.3,0-1.3-1.8,0-1.8h0.8c0.6,0,1-0.4,1-1V13.6
		c0-0.4-0.3-0.7-0.7-0.7c-1.2,0-1.6-1.2-0.6-1.7l12-6.1c0.3-0.2,0.7-0.2,1,0l12,6.1c0.9,0.4,0.6,1.7-0.6,1.7c-0.4,0-0.7,0.3-0.7,0.7
		v12.5c0,0.6,0.4,1,1,1H28.9z M10.3,13.6c-0.6,0-1.1,0.5-1.1,1.1v9.4c0,0.6,0.5,1.1,1.1,1.1s1.1-0.5,1.1-1.1v-9.4
		C11.4,14.1,10.9,13.6,10.3,13.6z M21.9,13.6c-0.6,0-1.1,0.5-1.1,1.1v9.4c0,0.6,0.5,1.1,1.1,1.1s1.1-0.5,1.1-1.1v-9.4
		C22.9,14.1,22.5,13.6,21.9,13.6z M16.1,13.6c-0.6,0-1.1,0.5-1.1,1.1v9.4c0,0.6,0.5,1.1,1.1,1.1s1.1-0.5,1.1-1.1v-9.4
		C17.1,14.1,16.7,13.6,16.1,13.6z"/>
</g>
</svg>
