<?xml version="1.0" encoding="utf-8"?>
<!-- Generator: Adobe Illustrator 21.1.0, SVG Export Plug-In . SVG Version: 6.00 Build 0)  -->
<svg version="1.1" id="Слой_1" xmlns="http://www.w3.org/2000/svg" xmlns:xlink="http://www.w3.org/1999/xlink" x="0px" y="0px"
	 viewBox="0 0 32 32" style="enable-background:new 0 0 32 32;" xml:space="preserve">
<style type="text/css">
	.st0{fill:url(#Combined-Shape_1_);}
</style>
<g id="Icon_Catalog_Z">
	
		<linearGradient id="Combined-Shape_1_" gradientUnits="userSpaceOnUse" x1="-637.75" y1="380.6111" x2="-637.75" y2="379.6111" gradientTransform="matrix(24 0 0 -18 15322 6858)">
		<stop  offset="0" style="stop-color:#FF7700"/>
		<stop  offset="1" style="stop-color:#FF8C00"/>
	</linearGradient>
	<path id="Combined-Shape" class="st0" d="M10.5,10.5C9.6,10.5,9,9.9,9,9s0.6-1.5,1.5-1.5h16C27.4,7.5,28,8.1,28,9s-0.6,1.5-1.5,1.5
		H10.5z M6,21c1.1,0,2,0.9,2,2s-0.9,2-2,2s-2-0.9-2-2S4.9,21,6,21z M6,14c1.1,0,2,0.9,2,2s-0.9,2-2,2s-2-0.9-2-2S4.9,14,6,14z M6,7
		c1.1,0,2,0.9,2,2s-0.9,2-2,2s-2-0.9-2-2S4.9,7,6,7z M26.5,14.5c0.9,0,1.5,0.6,1.5,1.5s-0.6,1.5-1.5,1.5h-16C9.6,17.5,9,16.9,9,16
		s0.6-1.5,1.5-1.5H26.5z M26.5,21.5c0.9,0,1.5,0.6,1.5,1.5s-0.6,1.5-1.5,1.5h-16C9.6,24.5,9,23.9,9,23s0.6-1.5,1.5-1.5H26.5z"/>
</g>
</svg>
