<?xml version="1.0" encoding="utf-8"?>
<!-- Generator: Adobe Illustrator 21.1.0, SVG Export Plug-In . SVG Version: 6.00 Build 0)  -->
<svg version="1.1" id="Слой_1" xmlns="http://www.w3.org/2000/svg" xmlns:xlink="http://www.w3.org/1999/xlink" x="0px" y="0px"
	 viewBox="0 0 32 32" style="enable-background:new 0 0 32 32;" xml:space="preserve">
<style type="text/css">
	.st0{fill:url(#Credit_1_);}
</style>
<g id="Credits">
	
		<linearGradient id="Credit_1_" gradientUnits="userSpaceOnUse" x1="-641.4707" y1="387.1082" x2="-641.9707" y2="386.1996" gradientTransform="matrix(28.155 0 0 -26.3428 18086.9355 10199.3057)">
		<stop  offset="0" style="stop-color:#FF7700"/>
		<stop  offset="1" style="stop-color:#FF8C00"/>
	</linearGradient>
	<path id="Credit" class="st0" d="M27.8,15.6v12.6c0,0.6-0.4,1-1,1h-22c-0.6,0-1-0.4-1-1V15.7c0-0.1-0.1-0.3-0.3-0.3
		c-0.1,0-0.1,0-0.2,0.1C3,15.9,2.3,15.8,2,15.4C1.6,15,1.7,14.3,2.1,14l13-10.9c0.2-0.2,0.5-0.2,0.7-0.2s0.5,0.1,0.7,0.2l13,10.9
		c0.4,0.4,0.5,1,0.1,1.4s-1,0.5-1.4,0.1c-0.1-0.1-0.2-0.1-0.3,0C27.8,15.5,27.8,15.6,27.8,15.6z M12.6,14.5c0.5,0,0.9,0.5,0.9,0.9
		c0,0.5-0.4,0.9-0.9,0.9c-0.5,0-0.9-0.4-0.9-0.9C11.7,14.9,12.1,14.5,12.6,14.5z M12.6,18.2c1.5,0,2.7-1.2,2.8-2.8
		c0-1.6-1.3-2.8-2.8-2.8c-1.6,0-2.8,1.3-2.8,2.8C9.8,17,11.1,18.2,12.6,18.2z M19,21c0.5,0,1,0.4,0.9,0.9c0,0.5-0.4,0.9-0.9,0.9
		c-0.5,0-0.9-0.4-0.9-0.9S18.5,21,19,21z M19,24.7c1.6,0,2.8-1.2,2.8-2.8s-1.3-2.8-2.8-2.8c-1.6,0-2.8,1.3-2.8,2.8
		C16.2,23.5,17.5,24.7,19,24.7z M11.6,23.8c0.3,0,0.5-0.1,0.6-0.3l8.3-8.3c0.4-0.4,0.4-0.9,0-1.3c-0.4-0.4-0.9-0.4-1.3,0l-8.3,8.3
		c-0.4,0.4-0.4,0.9,0,1.3C11.1,23.7,11.4,23.8,11.6,23.8z"/>
</g>
</svg>
