<?xml version="1.0" encoding="utf-8"?>
<!-- Generator: Adobe Illustrator 21.1.0, SVG Export Plug-In . SVG Version: 6.00 Build 0)  -->
<svg version="1.1" id="Слой_1" xmlns="http://www.w3.org/2000/svg" xmlns:xlink="http://www.w3.org/1999/xlink" x="0px" y="0px"
	 viewBox="0 0 32 32" style="enable-background:new 0 0 32 32;" xml:space="preserve">
<style type="text/css">
	.st0{fill:url(#SVGID_1_);}
</style>
<g id="Games">
	
		<linearGradient id="SVGID_1_" gradientUnits="userSpaceOnUse" x1="-644.2867" y1="384.9138" x2="-644.7867" y2="384.3777" gradientTransform="matrix(32 0 0 -23 20646 8861)">
		<stop  offset="0" style="stop-color:#FF7700"/>
		<stop  offset="1" style="stop-color:#FF8C00"/>
	</linearGradient>
	<path class="st0" d="M5.4,28c-1,0-2.1-0.3-3-0.9c-2.3-1.6-3-4.5-2-7.5C2,13.4,3,9.7,3.7,8.4C4.8,6.2,6.7,5,9,5c1,0,1.8,0.4,2.5,0.8
		C12.4,6.4,13.4,7,16,7c2.5,0,3.6-0.6,4.5-1.1C21.3,5.4,22,5,23.1,5c2.7,0,4.1,1.6,5.6,3.9c1.4,2.4,2.9,10,3.1,10.8
		c0.6,3.4-0.1,5.9-2.1,7.4c-1.9,1.2-4.1,1.2-6,0l-4.2-3.1c-0.6-0.5-1.3-0.7-2.2-0.7h-2.6c-0.8,0-1.5,0.2-2.2,0.7l-4.2,3.1
		C7.5,27.6,6.4,28,5.4,28z M9.5,17.4c1.5,0,2.8-1.2,2.8-2.8s-1.2-2.8-2.8-2.8S6.7,13,6.7,14.6S8,17.4,9.5,17.4z M9.5,15.5
		c-0.5,0-0.9-0.4-0.9-0.9s0.4-0.9,0.9-0.9s0.9,0.4,0.9,0.9S10,15.5,9.5,15.5z M23.6,13.6v-0.9c0-0.5-0.4-0.9-0.9-0.9
		s-0.9,0.4-0.9,0.9v0.9h-0.9c-0.5,0-0.9,0.4-0.9,0.9s0.4,0.9,0.9,0.9h0.9v0.9c0,0.5,0.4,0.9,0.9,0.9s0.9-0.4,0.9-0.9v-0.9h0.9
		c0.5,0,0.9-0.4,0.9-0.9s-0.4-0.9-0.9-0.9H23.6z"/>
</g>
</svg>
