<?xml version="1.0" encoding="utf-8"?>
<!-- Generator: Adobe Illustrator 21.1.0, SVG Export Plug-In . SVG Version: 6.00 Build 0)  -->
<svg version="1.1" id="Слой_1" xmlns="http://www.w3.org/2000/svg" xmlns:xlink="http://www.w3.org/1999/xlink" x="0px" y="0px"
	 viewBox="0 0 32 32" style="enable-background:new 0 0 32 32;" xml:space="preserve">
<style type="text/css">
	.st0{fill:url(#Combined-Shape_1_);}
</style>
<g id="Icon_House_Z">
	
		<linearGradient id="Combined-Shape_1_" gradientUnits="userSpaceOnUse" x1="-642.3096" y1="386.7863" x2="-641.3096" y2="385.8589" gradientTransform="matrix(28 0 0 -26 17984 10062)">
		<stop  offset="0" style="stop-color:#FF7700"/>
		<stop  offset="1" style="stop-color:#FF8C00"/>
	</linearGradient>
	<path id="Combined-Shape" class="st0" d="M19.4,28v-7c0-0.6-0.5-1-1-1h-4.1c-0.6,0-1,0.4-1,1v7c0,0.6-0.4,1-1,1H6c-0.6,0-1-0.4-1-1
		V16.5c0-0.6-0.5-1-1-1l-1.2,0c-0.2,0-0.5-0.1-0.6-0.3c-0.3-0.3-0.2-0.8,0.1-1.1L15.2,3.5c0.8-0.6,1.9-0.6,2.7,0.1l11.9,10.7
		c0.2,0.1,0.2,0.3,0.2,0.5c0,0.4-0.3,0.7-0.7,0.7l-0.9,0c0,0,0,0,0,0c-0.6,0-1,0.4-1,1V28c0,0.6-0.5,1-1,1h-5.9
		C19.8,29,19.4,28.6,19.4,28z M16.3,14c0.8,0,1.5-0.7,1.5-1.5S17.1,11,16.3,11s-1.5,0.7-1.5,1.5S15.4,14,16.3,14z"/>
</g>
</svg>
