<?xml version="1.0" encoding="utf-8"?>
<!-- Generator: Adobe Illustrator 23.0.2, SVG Export Plug-In . SVG Version: 6.00 Build 0)  -->
<svg version="1.1" id="Layer_1" xmlns="http://www.w3.org/2000/svg" xmlns:xlink="http://www.w3.org/1999/xlink" x="0px" y="0px"
	 viewBox="0 0 128 128" style="enable-background:new 0 0 128 128;" xml:space="preserve">
<style type="text/css">
	.st0{clip-path:url(#XMLID_2_);fill:url(#XMLID_3_);}
	.st1{clip-path:url(#XMLID_2_);}
	.st2{fill:url(#XMLID_4_);}
	.st3{fill:url(#XMLID_5_);}
	.st4{fill:url(#XMLID_6_);}
	.st5{fill:url(#XMLID_7_);}
	.st6{fill:none;}
	.st7{fill:url(#XMLID_8_);}
	.st8{fill:url(#XMLID_9_);}
	.st9{fill:#FFFFFF;}
	.st10{fill:#F10015;}
	.st11{fill:url(#XMLID_10_);}
	.st12{fill:url(#XMLID_11_);}
	.st13{fill:url(#XMLID_12_);}
	.st14{fill:url(#XMLID_13_);}
	.st15{fill:#FF4A00;}
	.st16{clip-path:url(#SVGID_2_);}
	.st17{fill:url(#SVGID_3_);}
</style>
<g id="XMLID_304_">
	<defs>
		<path id="XMLID_305_" d="M140.1,69.4c-0.8,1.5-24.7,0.8-28.6-0.5C109,92.4,89,110.7,64.8,110.7c-25.9,0-46.9-21-46.9-46.9
			c0-12.2,4.6-23.2,12.2-31.6c5.6-6.1-0.7-25.4,1.8-27.1c21-15,48.6-10.4,67.7,6.1C130,31.8,142,65.8,140.1,69.4z"/>
	</defs>
	<clipPath id="XMLID_2_">
		<use xlink:href="#XMLID_305_"  style="overflow:visible;"/>
	</clipPath>
	<linearGradient id="XMLID_3_" gradientUnits="userSpaceOnUse" x1="64.8209" y1="110.7" x2="64.8209" y2="16.8515">
		<stop  offset="0" style="stop-color:#E6E5E5"/>
		<stop  offset="0.5" style="stop-color:#F2F2F2"/>
	</linearGradient>
	<circle id="XMLID_333_" class="st0" cx="64.8" cy="63.8" r="46.9"/>
	<g id="XMLID_307_" class="st1">
		<linearGradient id="XMLID_4_" gradientUnits="userSpaceOnUse" x1="72.1503" y1="7.6776" x2="62.3657" y2="18.0904">
			<stop  offset="0" style="stop-color:#FF9300"/>
			<stop  offset="1" style="stop-color:#FF6800"/>
		</linearGradient>
		<path id="XMLID_332_" class="st2" d="M70.8,14.9c1-4.2,4.3-8.3,7.3-10.4c0.4-0.3,0.3-0.2,0.5-0.4c0.5-0.4-0.2-0.5-0.8-0.5
			C69.6,4,63,10.6,61.5,14.1L70.8,14.9z"/>
		
			<linearGradient id="XMLID_5_" gradientUnits="userSpaceOnUse" x1="187.9098" y1="501.5354" x2="197.7613" y2="505.7808" gradientTransform="matrix(0.9666 -0.2563 0.2563 0.9666 -265.3253 -423.4039)">
			<stop  offset="1.175861e-03" style="stop-color:#FF8B00"/>
			<stop  offset="1" style="stop-color:#FF6800"/>
		</linearGradient>
		<path id="XMLID_331_" class="st3" d="M52.4,18.2c-3-3.4-7.9-4.5-11.5-4.8c-0.5,0-0.3,0-0.6-0.1c-0.7-0.1-0.1-0.6,0.5-0.9
			C47.9,8.4,57,11,60.1,13.3L52.4,18.2z"/>
		
			<linearGradient id="XMLID_6_" gradientUnits="userSpaceOnUse" x1="203.5401" y1="506.9769" x2="196.1729" y2="492.9441" gradientTransform="matrix(0.9666 -0.2563 0.2563 0.9666 -265.3253 -423.4039)">
			<stop  offset="0" style="stop-color:#FF9600"/>
			<stop  offset="1" style="stop-color:#FF5C00"/>
		</linearGradient>
		<path id="XMLID_330_" class="st4" d="M68.1,12.9c-2.8-3.8-12.1-10.9-24-11c-0.9,0-2,0-2.1,0.4c-0.1,0.2,0.6,0.3,1.5,0.6
			c5.7,1.5,11.2,5.2,14.1,12.5L68.1,12.9z"/>
		<linearGradient id="XMLID_7_" gradientUnits="userSpaceOnUse" x1="74.0533" y1="87.1068" x2="42.5669" y2="114.9475">
			<stop  offset="0" style="stop-color:#FF9300"/>
			<stop  offset="1" style="stop-color:#FF7800"/>
		</linearGradient>
		<path id="XMLID_329_" class="st5" d="M90,90.5c-11.1-5.1-13.1-8.8-13.3-13.1c-0.3-6.8,6.7-11.6,10.3-17.4c3-4.8,4.1-7.1,4.4-11.2
			c0.4-3.6-0.4-8.7-2.8-12.2c-1.5-5.1-5.2-17.2-19.4-20.7c-11.9-2.9-17.9,5.1-22.8,11.8c-6.2,6.4-12.2,15-6.9,27
			c3.1,7.1,8.6,15.7,7.8,25.4c-0.8,9.7-14.4,28.5-9.2,39.8c20.9,45.2,58.1,36.5,70.6,21.9C122,126.2,121.6,104.9,90,90.5z"/>
		<path id="XMLID_328_" class="st6" d="M90,90.5c-11.1-5.1-13.1-8.8-13.3-13.1c-0.3-6.8,6.7-11.6,10.3-17.4c3-4.8,4.1-7.1,4.4-11.2
			c0.4-3.6-0.4-8.7-2.8-12.2c-1.5-5.1-5.2-17.2-19.4-20.7c-11.9-2.9-17.9,5.1-22.8,11.8c-6.2,6.4-12.2,15-6.9,27
			c3.1,7.1,8.6,15.7,7.8,25.4c-0.8,9.7-14.4,28.5-9.2,39.8c20.9,45.2,58.1,36.5,70.6,21.9C122,126.2,121.6,104.9,90,90.5z"/>
		
			<linearGradient id="XMLID_8_" gradientUnits="userSpaceOnUse" x1="74.317" y1="56.1629" x2="32.1592" y2="87.7812" gradientTransform="matrix(1 -4.873857e-04 3.894467e-02 1 -27.0615 -0.5872)">
			<stop  offset="0" style="stop-color:#FF9300"/>
			<stop  offset="1" style="stop-color:#FF7800"/>
		</linearGradient>
		<path id="XMLID_327_" class="st7" d="M88,58.2c3.9-8.1,5.4-13.9,0.6-21.5c-1-4.9-4.1-19.8-18.4-23.4c-12-3.1-20.3,6-24.9,13
			c-6.2,8.3-8.8,16.8-7.4,23.7c2,9.5,9.3,17.8,17.5,20.5C72.5,76.3,84.8,65,88,58.2z"/>
		
			<radialGradient id="XMLID_9_" cx="89.8142" cy="43.0359" r="28.4408" gradientTransform="matrix(1 -4.873857e-04 3.894467e-02 1 -27.0615 -0.5872)" gradientUnits="userSpaceOnUse">
			<stop  offset="0" style="stop-color:#FFB300"/>
			<stop  offset="1" style="stop-color:#FFC100;stop-opacity:0"/>
		</radialGradient>
		<path id="XMLID_326_" class="st8" d="M88,58.2c3.9-8.1,5.4-13.9,0.6-21.5c-1-4.9-4.1-19.8-18.4-23.4c-12-3.1-20.3,6-24.9,13
			c-6.2,8.3-8.8,16.8-7.4,23.7c2,9.5,9.3,17.8,17.5,20.5C72.5,76.3,84.8,65,88,58.2z"/>
		<path id="XMLID_325_" class="st9" d="M84.9,36.8c1-1.7,0.1-5.4-1.3-7.4c-1.4-2-4-3.7-6.1-1.8c-2,1.8-2,7.6-0.3,9
			C78.8,37.7,84.1,38.1,84.9,36.8z"/>
		<path id="XMLID_324_" class="st10" d="M64.8,19.8c-3.8-0.2-6.7,1.2-9.5,4.8c-0.3,0.4-0.8,0.1-0.8-0.3c0-2.2,0.9-4.5,2-5.4
			c1.3-1.1,4.8-1.8,8.4-0.1C65.5,19.1,65.3,19.8,64.8,19.8z"/>
		<path id="XMLID_321_" class="st10" d="M83.2,23.4c-1.5-1.6-3.8-3.3-6.4-4.3c-0.5-0.2-0.4-0.8,0.1-0.9c2-0.3,4-0.1,5.2,1.1
			c1,0.9,1.5,2.1,1.8,3.5C83.9,23.4,83.5,23.7,83.2,23.4z"/>
		<path id="XMLID_320_" class="st6" d="M86.5,56c4.8-7.8,4.3-14.2,1.2-19.3c-1.5-5.3-3.3-19.8-17.5-23.4
			c-11.9-3.1-19.8,6.5-24.8,13.5c-6.2,6.8-8.9,15.9-7.8,22.8c1.6,9.5,9.2,16.2,15.7,18.7C70.1,74.7,80.2,66.2,86.5,56z"/>
		<path id="XMLID_318_" class="st9" d="M85.3,36.6c1.1-1.8,0.1-5.7-1.2-7.8c-1.5-2.5-4.4-4.8-6.7-2.7c-2.2,2-1.9,9.1-0.1,10.5
			C78.8,37.8,84.4,38.1,85.3,36.6z"/>
		<path id="XMLID_317_" class="st9" d="M58.5,37.4c2.1,1.9,10,1.6,11.2-1.5c1.2-3.1-2.5-10.7-6.5-10.5
			C58.1,25.6,56.2,35.3,58.5,37.4z"/>
		
			<linearGradient id="XMLID_10_" gradientUnits="userSpaceOnUse" x1="-66.1823" y1="-139.7319" x2="-60.6608" y2="-139.7319" gradientTransform="matrix(0.979 0.1963 -0.2041 0.9805 113.1102 182.5003)">
			<stop  offset="0" style="stop-color:#383638"/>
			<stop  offset="1" style="stop-color:#232122"/>
		</linearGradient>
		<path id="XMLID_316_" class="st11" d="M81.7,35.5c0.9-1,0.5-5.1-2.1-5.6c-2.9-0.6-3.6,4.8-1.6,5.8C79.5,36.5,81,36.3,81.7,35.5z"
			/>
		
			<linearGradient id="XMLID_11_" gradientUnits="userSpaceOnUse" x1="246.0506" y1="253.9328" x2="252.1297" y2="253.9328" gradientTransform="matrix(0.9979 -6.411985e-02 6.411985e-02 0.9979 -202.5469 -203.6048)">
			<stop  offset="0" style="stop-color:#383638"/>
			<stop  offset="1" style="stop-color:#232122"/>
		</linearGradient>
		<path id="XMLID_315_" class="st12" d="M65.1,36.2c0.9-1.3,0.1-5.7-3-5.8c-3.3-0.1-3.6,5.9-1.3,6.6C62.7,37.6,64.4,37.1,65.1,36.2z
			"/>
		
			<ellipse id="XMLID_314_" transform="matrix(0.9811 -0.1934 0.1934 0.9811 -5.4584 12.3845)" class="st9" cx="60.7" cy="34.1" rx="1.6" ry="1.8"/>
		
			<ellipse id="XMLID_313_" transform="matrix(0.9535 -0.3015 0.3015 0.9535 -6.2605 25.0428)" class="st9" cx="78" cy="32.8" rx="1.5" ry="1.7"/>
		<g id="XMLID_308_">
			
				<linearGradient id="XMLID_12_" gradientUnits="userSpaceOnUse" x1="51.2935" y1="-1.488" x2="133.3106" y2="6.6297" gradientTransform="matrix(0.9965 8.336675e-02 -8.336675e-02 0.9965 -8.3579 39.202)">
				<stop  offset="0" style="stop-color:#FF5100"/>
				<stop  offset="1" style="stop-color:#F10015"/>
			</linearGradient>
			<path id="XMLID_312_" class="st13" d="M78.5,41.2c7.2,1.1,17.7,6.5,24.6,9.8c3.2,1.5,5.3,2.4,6.2,3c1.3,0.8,5.1,3.1,5.1,3.1
				c-4.4-1.1-12.8-2.2-19.3-2.3c-6.5-0.1-18.2,1.1-25.9-0.6c-6.2-1.3-14.3-7.4-15.6-14c3.6,4.7,9.5,3.4,13.8,2.6
				C71.8,42,78.5,41.2,78.5,41.2z"/>
			
				<linearGradient id="XMLID_13_" gradientUnits="userSpaceOnUse" x1="-434.5129" y1="-382.6419" x2="-501.2466" y2="-383.2486" gradientTransform="matrix(0.9585 0.2852 -0.2852 0.9585 428.1801 548.7888)">
				<stop  offset="0" style="stop-color:#F10015"/>
				<stop  offset="0.8896" style="stop-color:#FF4A00"/>
			</linearGradient>
			<path id="XMLID_311_" class="st14" d="M74.3,38.1c-3,0.1-4.9,1.4-7.5,2.7c-2.4,1.3-5.9,2.1-8.3,1.6c-1.4-0.3-1.7,1.7,0,2.5
				c3.8,1.7,12,3.3,21.8,3.5c9.2,0.2,22.8,4.7,32.4,8c3.8,1.3,7.6,2.6,11.2,4.1c0.7,0.3,1.2-0.7,0.4-1
				C123.4,59.2,82.9,37.9,74.3,38.1z"/>
			<path id="XMLID_310_" class="st10" d="M68.1,47.1c7.9,0.9,20.1-1.1,48.1,10.6c-16.9-5.8-28.3-8.2-38.5-8.5
				c-10-0.3-17.1-1.6-21.3-4.3c-1.1-0.7-1.8-2-2.4-2.7C56.8,44.7,62.5,46.4,68.1,47.1z"/>
			<path id="XMLID_309_" class="st15" d="M59.2,42.6c-1.5-0.2-2.8-0.5-3.6-1.2c-1.7-1.5-0.6-3-2-4.1c-0.8-0.6-2-0.6-2.8,0.1
				c-0.9,0.7-1.2,1.7-1.1,2.6c0.1,1.1,0.9,1.8,2.1,1.8c1.2,0,1.6,0.1,3.5,1.3c1.1,0.7,2.5,1.5,4.3,2.1
				C63.5,46.5,61.7,42.9,59.2,42.6z"/>
		</g>
	</g>
</g>
<g>
	<defs>
		<path id="SVGID_1_" d="M140.6,69c-0.8,1.5-24.9,0.8-28.9-0.5c-2.5,23.7-22.6,42.2-47,42.2c-26.1,0-47.3-21.2-47.3-47.3
			c0-12.3,4.7-23.4,12.3-31.8C35.3,25.5,29,6,31.5,4.3c21.2-15.1,48.9-10.4,68.2,6.1C130.5,31.1,142.5,65.3,140.6,69z"/>
	</defs>
	<clipPath id="SVGID_2_">
		<use xlink:href="#SVGID_1_"  style="overflow:visible;"/>
	</clipPath>
	<g class="st16">
		<path class="st9" d="M88.5,84.9c-2.8,2.8-5.4,5.7-8,8.8L71,88c-0.3-0.2-0.7-0.4-1.1-0.4c-0.4,0.1-0.8,0.3-1.1,0.6
			c-2.6,2.1-5,4.3-7.3,6.7c-2.1-2.7-4.4-5.3-7-7.5c-2.2,1.8-4.2,3.8-6.2,5.9c-2.4-2.8-4.9-5.4-7.5-8L34.3,88
			c-0.4,0.2-0.8,0.3-1.2,0.2c-0.3-0.1-0.5-0.3-0.7-0.5c-3.4-2.9-6.7-6-9.7-9.3c-0.9,0-1.7,0.3-2.5,0.7c7.4,15.2,27.6,30.7,44.8,30.7
			c19.3,0,39-14.6,45.1-32.9c-0.6-0.4-1.3-0.7-2-0.8c-4.8,4.9-10,9.4-14.9,14.3C92.1,88.2,90.5,86.3,88.5,84.9L88.5,84.9z"/>
		
			<linearGradient id="SVGID_3_" gradientUnits="userSpaceOnUse" x1="20" y1="36.1235" x2="109.9" y2="36.1235" gradientTransform="matrix(1 0 0 -1 0 130)">
			<stop  offset="0" style="stop-color:#D1CECF"/>
			<stop  offset="1" style="stop-color:#E9EEF2"/>
		</linearGradient>
		<path class="st17" d="M89.8,85.8c-2.9,2.8-5.8,5.7-8.5,8.8L71.1,89c-0.3-0.2-0.7-0.4-1.1-0.4c-0.4,0.1-0.9,0.3-1.2,0.6
			c-2.7,2.1-5.3,4.3-7.8,6.7c-2.2-2.7-4.7-5.3-7.5-7.5c-2.3,1.8-4.4,3.8-6.5,5.8c-2.6-2.8-5.2-5.4-8-8L32,89
			c-0.4,0.2-0.8,0.3-1.3,0.2c-0.3-0.1-0.6-0.3-0.8-0.5c-3.5-3-6.8-6.1-9.9-9.5c8.6,24.6,35.6,37.6,60.2,29
			c14.4-5,25.4-16.7,29.7-31.3L94.6,91.5C93.4,89.3,91.8,87.3,89.8,85.8z"/>
	</g>
</g>
</svg>
