<?xml version="1.0" encoding="utf-8"?>
<!-- Generator: Adobe Illustrator 21.1.0, SVG Export Plug-In . SVG Version: 6.00 Build 0)  -->
<svg version="1.1" id="Слой_1" xmlns="http://www.w3.org/2000/svg" xmlns:xlink="http://www.w3.org/1999/xlink" x="0px" y="0px"
	 viewBox="0 0 32 32" style="enable-background:new 0 0 32 32;" xml:space="preserve">
<style type="text/css">
	.st0{fill:url(#Combined-Shape_1_);}
</style>
<g id="Icon_Social_Z">
	
		<linearGradient id="Combined-Shape_1_" gradientUnits="userSpaceOnUse" x1="-639.4722" y1="386.3393" x2="-640.0739" y2="385.4147" gradientTransform="matrix(26 0 0 -25 16653 9661)">
		<stop  offset="0" style="stop-color:#FF7700"/>
		<stop  offset="1" style="stop-color:#FF8C00"/>
	</linearGradient>
	<path id="Combined-Shape" class="st0" d="M8.6,13.6c0,0.6,0.4,9.6,0.4,12.8c-0.1,0.5-0.3,0.8-0.5,1c-0.3,0.1-0.5,0.2-0.8,0.2h-3
		c-1,0-1.7-0.8-1.7-1.7V14.1c0-0.9,0.7-1.7,1.7-1.8c1,0,1.9,0,2.5,0C8.2,12.3,8.6,13.3,8.6,13.6z M25.2,11c2.2,0,3.9,1.7,3.8,3.9
		c0,0.1,0,0.1,0,0.2l-1.4,9.2c-0.3,2.3-1.9,3.7-4.5,3.7H12.6c-0.3,0-0.7-0.2-1.2-0.4c-0.8-0.6-1.2-1.1-1.2-1.6
		c0-0.8-0.6-11.4,0-12.8c0.1-0.1,0.1-0.1,0.2-0.2c0.5-0.5,1-1,1.4-1.3c1.3-0.9,1.9-2,1.9-3.3V4.1c0-0.4,0.3-0.8,0.7-0.9
		c0.2-0.1,2.4-0.7,4,0.5c1.1,0.7,1.6,2,1.6,3.8v2.4c0,0.6,0.5,1.1,1.1,1.1H25.2z"/>
</g>
</svg>
