<?xml version="1.0" encoding="utf-8"?>
<!-- Generator: Adobe Illustrator 21.1.0, SVG Export Plug-In . SVG Version: 6.00 Build 0)  -->
<svg version="1.1" id="Слой_1" xmlns="http://www.w3.org/2000/svg" xmlns:xlink="http://www.w3.org/1999/xlink" x="0px" y="0px"
	 viewBox="0 0 32 32" style="enable-background:new 0 0 32 32;" xml:space="preserve">
<style type="text/css">
	.st0{fill:url(#Combined-Shape_1_);}
</style>
<g id="Icon_Telephony_Z">
	
		<linearGradient id="Combined-Shape_1_" gradientUnits="userSpaceOnUse" x1="-642.2668" y1="385.5849" x2="-641.2668" y2="384.7947" gradientTransform="matrix(28 0 0 -24 17984 9261)">
		<stop  offset="0" style="stop-color:#FF7700"/>
		<stop  offset="1" style="stop-color:#FF8C00"/>
	</linearGradient>
	<path id="Combined-Shape" class="st0" d="M27.1,6.9c1.6,0,2.9,1.2,2.9,2.9v15.4c0,1.6-1.3,2.9-2.9,2.9H4.9C3.3,28,2,26.8,2,25.1
		V9.8c0-1.6,0.2-2.9,1.6-2.9c0.9,0,1.5,0.3,1.8,1V22c0,1.7,1.4,3.1,3.1,3.1h3.5c1.7,0,3.1-1.2,3.1-3.1V7.6c0-0.4,0.3-0.7,0.7-0.7
		C19.5,6.9,23.3,6.9,27.1,6.9z M18.9,21.3c0.8,0,1.4-0.7,1.4-1.4s-0.7-1.4-1.4-1.4c-0.8,0-1.4,0.7-1.4,1.4S18.1,21.3,18.9,21.3z
		 M18.9,16.5c0.8,0,1.4-0.7,1.4-1.4s-0.7-1.4-1.4-1.4c-0.8,0-1.4,0.7-1.4,1.4S18.1,16.5,18.9,16.5z M23.7,21.3
		c0.8,0,1.4-0.7,1.4-1.4s-0.7-1.4-1.4-1.4s-1.4,0.7-1.4,1.4S23,21.3,23.7,21.3z M23.7,16.5c0.8,0,1.4-0.7,1.4-1.4s-0.7-1.4-1.4-1.4
		s-1.4,0.7-1.4,1.4S23,16.5,23.7,16.5z M8.5,23.2c-0.7,0-1.2-0.5-1.2-1.2V6.9V5.2C7.3,4.5,7.8,4,8.5,4h3.5c0.7,0,1.2,0.5,1.2,1.2
		v1.7V22c0,0.7-0.5,1.2-1.2,1.2H8.5z"/>
</g>
</svg>
