<?xml version="1.0" encoding="utf-8"?>
<!-- Generator: Adobe Illustrator 21.1.0, SVG Export Plug-In . SVG Version: 6.00 Build 0)  -->
<svg version="1.1" id="Слой_1" xmlns="http://www.w3.org/2000/svg" xmlns:xlink="http://www.w3.org/1999/xlink" x="0px" y="0px"
	 viewBox="0 0 32 32" style="enable-background:new 0 0 32 32;" xml:space="preserve">
<style type="text/css">
	.st0{fill:url(#Combined-Shape_1_);}
</style>
<g id="Transport">
	
		<linearGradient id="Combined-Shape_1_" gradientUnits="userSpaceOnUse" x1="-637.4688" y1="386.4375" x2="-637.9296" y2="385.3997" gradientTransform="matrix(24 0 0 -25 15322 9662)">
		<stop  offset="0" style="stop-color:#FF7700"/>
		<stop  offset="1" style="stop-color:#FF8C00"/>
	</linearGradient>
	<path id="Combined-Shape" class="st0" d="M21,25H11v2c0,1.1-0.9,2-2,2H6c-1.1,0-2-0.9-2-2v-3V7c0-1.7,1.3-3,3-3h18c1.7,0,3,1.3,3,3
		v15.5V27c0,1.1-0.9,2-2,2h-3c-1.1,0-2-0.9-2-2V25z M8.7,21c0.8,0,1.5-0.7,1.5-1.5S9.5,18,8.7,18s-1.5,0.7-1.5,1.5S7.8,21,8.7,21z
		 M23.7,21c0.8,0,1.5-0.7,1.5-1.5S24.5,18,23.7,18c-0.8,0-1.5,0.7-1.5,1.5S22.8,21,23.7,21z M8.2,7C7.6,7,7.2,7.5,7.2,8.1v5.8
		c0,0.6,0.5,1.1,1.1,1.1h15.8c0.6,0,1.1-0.5,1.1-1.1V8.1c0-0.6-0.5-1.1-1.1-1.1H8.2z"/>
</g>
</svg>
