<?xml version="1.0" encoding="utf-8"?>
<!-- Generator: Adobe Illustrator 21.1.0, SVG Export Plug-In . SVG Version: 6.00 Build 0)  -->
<svg version="1.1" id="Слой_1" xmlns="http://www.w3.org/2000/svg" xmlns:xlink="http://www.w3.org/1999/xlink" x="0px" y="0px"
	 viewBox="0 0 32 32" style="enable-background:new 0 0 32 32;" xml:space="preserve">
<style type="text/css">
	.st0{fill:url(#Transfers_1_);}
</style>
<g id="Icon_Transfers_Z">
	
		<linearGradient id="Transfers_1_" gradientUnits="userSpaceOnUse" x1="-641.4127" y1="384.3203" x2="-642.0145" y2="383.7029" gradientTransform="matrix(28 0 0 -22 17984 8460)">
		<stop  offset="0" style="stop-color:#FF7700"/>
		<stop  offset="1" style="stop-color:#FF8C00"/>
	</linearGradient>
	<path id="Transfers" class="st0" d="M13.4,15H6.6C5.9,15,5.3,14.6,5,14L2.3,8.8L2.2,8.6C2.1,8.2,2,7.9,2,7.4C2.1,6,3.3,4.9,4.8,5
		h8.7c0.7,0,1.4,0.2,1.9,0.5l13.2,8c0.4,0.3,0.7,0.6,1,1c0.7,1.3,0.3,3-1,3.7l-13.3,8.2c-0.6,0.4-1.3,0.6-2,0.6H4.8
		c-0.4,0-0.8-0.1-1.2-0.3c-1.4-0.7-2-2.3-1.3-3.7L5,17.6c0.3-0.6,0.9-1,1.6-1h6.8c0.5,0,0.9-0.4,0.9-0.9l0,0
		C14.2,15.4,13.9,15,13.4,15z"/>
</g>
</svg>
