<?xml version="1.0" encoding="utf-8"?>
<!-- Generator: Adobe Illustrator 21.1.0, SVG Export Plug-In . SVG Version: 6.00 Build 0)  -->
<svg version="1.1" id="Слой_1" xmlns="http://www.w3.org/2000/svg" xmlns:xlink="http://www.w3.org/1999/xlink" x="0px" y="0px"
	 viewBox="0 0 32 32" style="enable-background:new 0 0 32 32;" xml:space="preserve">
<style type="text/css">
	.st0{fill:url(#SVGID_1_);}
</style>
<g id="TV">
	
		<linearGradient id="SVGID_1_" gradientUnits="userSpaceOnUse" x1="-642.2781" y1="385.5706" x2="-641.2781" y2="384.7803" gradientTransform="matrix(28 0 0 -24 17984 9261)">
		<stop  offset="0" style="stop-color:#FF7700"/>
		<stop  offset="1" style="stop-color:#FF8C00"/>
	</linearGradient>
	<path class="st0" d="M28,8h-7.2l1.7-2.4c0.3-0.5,0.2-1.1-0.2-1.4C22,4,21.8,4,21.5,4S21,4.2,20.9,4.4l-2.3,3.3
		c-0.1,0.1-0.1,0.2-0.1,0.3h-4.8l0,0c0-0.1-0.1-0.2-0.1-0.3l-2.3-3.3C11.1,4.2,10.9,4,10.7,4C10.3,4,10,4,9.8,4.2
		C9.4,4.5,9.3,5.1,9.6,5.6L11.3,8H4c-1.1,0-2,0.9-2,2v16c0,1.1,0.9,2,2,2h24c1.1,0,2-0.9,2-2V10C30,8.9,29.1,8,28,8z"/>
</g>
</svg>
