<?xml version="1.0" encoding="utf-8"?>
<!-- Generator: Adobe Illustrator 21.1.0, SVG Export Plug-In . SVG Version: 6.00 Build 0)  -->
<svg version="1.1" id="Слой_1" xmlns="http://www.w3.org/2000/svg" xmlns:xlink="http://www.w3.org/1999/xlink" x="0px" y="0px"
	 viewBox="0 0 32 32" style="enable-background:new 0 0 32 32;" xml:space="preserve">
<style type="text/css">
	.st0{fill:url(#path-2_2_);}
</style>
<g id="Icon_Wallet">
	<g id="Mask">
		
			<linearGradient id="path-2_2_" gradientUnits="userSpaceOnUse" x1="-639.8846" y1="385.7083" x2="-639.8846" y2="384.7083" gradientTransform="matrix(26 0 0 -24 16653 9261)">
			<stop  offset="0" style="stop-color:#FF7700"/>
			<stop  offset="1" style="stop-color:#FF8C00"/>
		</linearGradient>
		<path id="path-2_1_" class="st0" d="M9.7,10h13.4V7.5c0-0.1,0-0.2-0.1-0.3c-0.2-0.6-0.8-1-1.5-0.8L9.7,10z M25.5,10H27
			c1.1,0,2,0.9,2,2v14c0,1.1-0.9,2-2,2H5c-1.1,0-2-0.9-2-2V12c0-0.2,0-0.3,0.1-0.5c0.2-1.3,1.2-2.3,2.5-2.7l15.4-4.6
			c1.9-0.6,3.9,0.5,4.4,2.4c0.1,0.3,0.2,0.7,0.2,1V10z M25,18.4c0-0.8-0.7-1.5-1.5-1.5c-0.8,0-1.5,0.7-1.5,1.5
			c0,0.8,0.7,1.5,1.5,1.5C24.3,19.9,25,19.3,25,18.4z"/>
	</g>
</g>
</svg>
