<?xml version="1.0" encoding="utf-8"?>
<!-- Generator: Adobe Illustrator 21.1.0, SVG Export Plug-In . SVG Version: 6.00 Build 0)  -->
<svg version="1.1" id="Слой_1" xmlns="http://www.w3.org/2000/svg" xmlns:xlink="http://www.w3.org/1999/xlink" x="0px" y="0px"
	 viewBox="0 0 32 32" style="enable-background:new 0 0 32 32;" xml:space="preserve">
<style type="text/css">
	.st0{fill:url(#Combined-Shape_1_);}
</style>
<g id="Icon_Internet_Z-">
	
		<linearGradient id="Combined-Shape_1_" gradientUnits="userSpaceOnUse" x1="-642.5345" y1="385.0435" x2="-642.5345" y2="384.0435" gradientTransform="matrix(29 0 0 -23 18649.5 8861)">
		<stop  offset="0" style="stop-color:#FF7700"/>
		<stop  offset="1" style="stop-color:#FF8C00"/>
	</linearGradient>
	<path id="Combined-Shape" class="st0" d="M20.7,19.2c0.4,0.3,0.8,0.6,1.4,1.3c0.3,0.3,0.4,0.7,0.4,1.1c-0.1,0.5-0.3,0.9-0.6,1.1
		c-0.2,0.3-0.5,0.4-0.9,0.4h-0.1c-0.5-0.1-0.9-0.3-1.1-0.6c-0.5-0.6-0.7-0.7-0.9-0.9c-1-0.8-2.3-1.2-3.5-1s-2.3,0.8-3,1.8
		c-0.2,0.3-0.6,0.5-1,0.6c-0.4,0-0.8-0.1-1.1-0.3c-0.6-0.5-0.8-1.5-0.3-2.1c1.2-1.7,3.1-2.8,5.1-3.1C17.1,17.3,19.1,17.9,20.7,19.2z
		 M16,23.9c1.1,0,2,0.9,2,2s-0.9,2-2,2c-1.1,0-2-0.9-2-2S14.9,23.9,16,23.9z M25.2,14.8l1,1c0.3,0.4,0.4,0.9,0.3,1.3
		s-0.3,0.7-0.6,0.9c-0.3,0.2-0.8,0.3-1.2,0.2S24,18,23.8,17.7c-0.1-0.1-0.2-0.3-0.4-0.4c-0.1-0.1-0.2-0.2-0.3-0.3
		c-2.1-2-4.8-3.1-7.7-2.9c-2.9,0.2-5.5,1.5-7.4,3.8c-0.3,0.3-0.7,0.5-1.1,0.5c-0.4,0-0.7-0.1-1-0.4s-0.5-0.6-0.5-1s0.1-0.8,0.4-1.1
		c2.4-2.9,5.8-4.6,9.5-4.8S22.5,12.2,25.2,14.8z M30.1,11.3c0.5,0.6,0.5,1.6-0.2,2.1c-0.6,0.6-1.5,0.6-2.1,0l-0.7-0.7
		C24,9.6,19.8,7.9,15.5,8S7.1,10.1,4,13.5C3.7,13.8,3.3,14,2.9,14c-0.3,0-0.6-0.1-0.9-0.3c-0.6-0.6-0.7-1.5-0.2-2.1
		c3.6-4,8.4-6.3,13.6-6.5c5.1-0.1,10.1,1.8,13.9,5.6L30.1,11.3z"/>
</g>
</svg>
