<svg xmlns="http://www.w3.org/2000/svg" width="20" height="20" viewBox="0 0 20 20">
  <path fill="#999" fill-rule="evenodd" d="M158,1 L142,1 C141.4,1 141,1.4 141,2 L141,18 C141,18.5 141.4,19 142,19 L150.1,19 L150.1,12.1 L147.8,12.1 L147.8,9.4 L150.1,9.4 L150.1,7.4 C150.1,5.1 151.5,3.8 153.6,3.8 C154.6,3.8 155.4,3.9 155.7,3.9 L155.7,6.3 L154.3,6.3 C153.2,6.3 153,6.8 153,7.6 L153,9.3 L155.7,9.3 L155.4,12 L153.1,12 L153.1,19 L158,19 C158.5,19 159,18.6 159,18 L159,2 C159,1.4 158.6,1 158,1 Z" transform="translate(-140)"/>
</svg>
