<svg xmlns="http://www.w3.org/2000/svg" width="120" height="30" viewBox="0 0 120 30">
  <path fill="#999" fill-rule="evenodd" d="M196.910021,20.0132706 C196.902674,17.6686811 198.795425,15.7610334 201.14,15.75 C202.275536,15.7281956 203.371279,16.1682976 204.176255,16.9695037 C204.981232,17.7707097 205.426473,18.8643738 205.41,20 C205.409974,22.344601 203.511233,24.2462873 201.166635,24.2499478 C198.822037,24.2536083 196.917368,22.3578601 196.910021,20.0132706 Z M198.632021,21.1184371 C199.088673,22.0743135 200.083227,22.6539053 201.14,22.58 C201.803292,22.5646164 202.432248,22.2819613 202.88414,21.7961771 C203.336033,21.3103928 203.572543,20.6626719 203.54,20 C203.537419,18.9406494 202.887538,17.9905338 201.901188,17.6040831 C200.914838,17.2176324 199.792496,17.4733932 199.070966,18.249038 C198.349436,19.0246828 198.17537,20.1625607 198.632021,21.1184371 Z M191.83,15.75 L191.82,15.75 C192.955536,15.7281956 194.051279,16.1682976 194.856255,16.9695037 C195.661232,17.7707097 196.106473,18.8643738 196.09,20 C196.089994,22.345907 194.189232,24.2481513 191.843325,24.2499869 C189.497419,24.2518225 187.593683,22.3525551 187.590005,20.006651 C187.586328,17.6607469 189.484099,15.7555198 191.83,15.75 Z M191.83,22.58 L191.82,22.58 C192.483292,22.5646164 193.112248,22.2819613 193.56414,21.7961771 C194.016033,21.3103928 194.252543,20.6626719 194.22,20 C194.217121,18.9398011 193.56595,17.9892877 192.578354,17.6036927 C191.590758,17.2180976 190.467804,17.4759253 189.747313,18.2536934 C189.026823,19.0314615 188.855482,20.1708219 189.315352,21.1260966 C189.775222,22.0813713 190.772676,22.658073 191.83,22.58 Z M180.74,17.06 L180.74,17.01 L186.81,17.01 C186.879737,17.3825548 186.913227,17.7609882 186.91,18.14 C186.957043,19.6957612 186.397676,21.2089216 185.35,22.36 C184.152741,23.6136762 182.471765,24.2882543 180.74,24.21 C178.318961,24.304221 176.040394,23.0663282 174.801854,20.9839429 C173.563315,18.9015577 173.563315,16.3084423 174.801854,14.2260571 C176.040394,12.1436718 178.318961,10.905779 180.74,11 C182.440718,10.9852541 184.07492,11.6598581 185.27,12.87 L184,14.14 C183.123762,13.2940521 181.947796,12.8301388 180.73,12.85 C178.079033,12.85 175.93,14.9990332 175.93,17.65 C175.93,20.3009668 178.079033,22.45 180.73,22.45 C181.976543,22.499658 183.186023,22.0202246 184.06,21.13 C184.639845,20.5077945 184.992263,19.7078038 185.06,18.86 L180.74,18.86 L180.74,17.06 Z M226.05,18.46 L226.26,18.91 L220.57,21.26 C220.926641,22.0721998 221.743591,22.5837851 222.63,22.55 C223.485856,22.552167 224.279746,22.1039422 224.72,21.37 L226.17,22.37 C225.380643,23.5514455 224.050858,24.257659 222.63,24.25 C221.500558,24.2665588 220.41294,23.8231198 219.617052,23.0215741 C218.821164,22.2200283 218.385441,21.1292961 218.41,20 C218.340895,18.8965231 218.731614,17.8136596 219.489379,17.0085336 C220.247145,16.2034076 221.304364,15.7478383 222.41,15.75 C224.067928,15.811053 225.51608,16.8892101 226.05,18.46 Z M220.25,19.88 L224.05,18.3 C223.751066,17.7106826 223.12937,17.3565516 222.47,17.4 C221.84446,17.4282216 221.256608,17.7070373 220.838967,18.1735911 C220.421326,18.640145 220.209052,19.2551643 220.25,19.88 Z M217.5,24 L215.63,24 L215.63,11.5 L217.5,11.5 L217.5,24 Z M212.5,16.7 L212.57,16.7 L212.57,16 L214.29,16 L214.29,23.65 C214.29,26.79 212.48,28.08 210.29,28.08 C208.639231,28.0898583 207.147682,27.096811 206.52,25.57 L208.15,24.89 C208.490728,25.7810334 209.336303,26.3776774 210.29,26.4 C211.69,26.4 212.56,25.53 212.56,23.9 L212.56,23.21 L212.5,23.21 C211.938016,23.8582688 211.117829,24.2244237 210.26,24.21 C207.990147,24.0999283 206.206337,22.2275204 206.206337,19.955 C206.206337,17.6824796 207.990147,15.8100717 210.26,15.7 C211.115057,15.69888 211.929962,16.0626768 212.5,16.7 Z M210.43,22.58 L210.42,22.58 C211.06991,22.5550138 211.681283,22.2651443 212.11197,21.7777877 C212.542657,21.2904311 212.755135,20.6480494 212.7,20 C212.749373,19.3549169 212.536214,18.7172228 212.10885,18.2314965 C211.681486,17.7457702 211.07612,17.4531575 210.43,17.42 C209.092888,17.5378402 208.067376,18.657705 208.067376,20 C208.067376,21.342295 209.092888,22.4621598 210.43,22.58 Z M230.34,11.5 L234.81,11.5 C236.262539,11.3937818 237.652733,12.1078505 238.412481,13.3504022 C239.172228,14.5929539 239.174242,16.1558135 238.4177,17.4003192 C237.661157,18.6448249 236.272808,19.3624742 234.82,19.26 L232.21,19.26 L232.21,24 L230.34,24 L230.34,11.5 Z M234.81,17.5 L234.85,17.52 C236.031889,17.52 236.99,16.5618894 236.99,15.38 C236.99,14.1981106 236.031889,13.24 234.85,13.24 L232.2,13.24 L232.2,17.5 L234.81,17.5 Z M246.34,15.7 L246.39,15.73 C248.52,15.73 250.18,17 250.18,19.19 L250.18,24 L248.38,24 L248.38,23 L248.32,23 C247.799569,23.8087132 246.879229,24.2688831 245.92,24.2 C245.141598,24.2575326 244.373022,23.9977652 243.789131,23.4797974 C243.20524,22.9618295 242.855688,22.2297088 242.82,21.45 C242.82,19.64 244.63,18.64 246.42,18.64 C247.099592,18.6371252 247.769393,18.8019991 248.37,19.12 L248.37,18.99 C248.322299,18.5095749 248.083603,18.0684503 247.707528,17.7657102 C247.331454,17.4629701 246.849528,17.3239946 246.37,17.38 C245.671125,17.3228556 245.004406,17.6836682 244.67,18.3 L243.01,17.61 C243.640687,16.367088 244.948713,15.6168389 246.34,15.7 Z M246.11,22.55 L246.16,22.58 C247.286524,22.5525405 248.220696,21.699415 248.35,20.58 C247.831131,20.2903874 247.244042,20.1453419 246.65,20.16 C245.71,20.16 244.65,20.49 244.65,21.49 C244.77236,22.1785033 245.417448,22.646855 246.11,22.55 Z M256.74,16 L256.75,16 L258.82,16 L253.7,27.79 L251.75,27.79 L253.65,23.58 L250.32,16 L252.32,16 L254.54,21.42 L254.6,21.42 L256.74,16 Z M241.8,24 L239.93,24 L239.93,11.5 L241.8,11.5 L241.8,24 Z M174.38,8.27 L174.38,6.27 L175,6.27 C175.581524,5.65376239 175.859872,4.81139455 175.76,3.97 L175.76,1 L179.76,1 L179.76,6.26 L180.4,6.26 L180.4,8.26 L179.66,8.26 L179.66,7 L175.11,7 L175.11,8.27 L174.38,8.27 Z M175.93,6.3 L178.93,6.3 L178.93,1.74 L176.5,1.74 L176.5,4 C176.546657,4.80663961 176.347936,5.60849866 175.93,6.3 Z M182.01,6.22 C180.830269,4.97123387 180.830269,3.01876613 182.01,1.77 C182.591998,1.18374669 183.383916,0.854032967 184.21,0.854032967 C185.036084,0.854032967 185.828002,1.18374669 186.41,1.77 C187.594766,3.01675984 187.594766,4.97324016 186.41,6.22 C185.19299,7.43022788 183.22701,7.43022788 182.01,6.22 Z M185.84,5.72 C186.725198,4.74417114 186.725198,3.25582886 185.84,2.28 C184.938676,1.38243493 183.481324,1.38243493 182.58,2.28 C181.694802,3.25582886 181.694802,4.74417114 182.58,5.72 C183.481324,6.61756507 184.938676,6.61756507 185.84,5.72 Z M188.951979,6.23088637 C188.362943,5.63996253 188.040749,4.83413647 188.06,4 C188.040749,3.16586353 188.362943,2.36003747 188.951979,1.76911363 C189.541015,1.1781898 190.345806,0.853417901 191.18,0.87 C192.027743,0.849008838 192.838395,1.21748737 193.38,1.87 L192.84,2.39 C192.439231,1.88120476 191.816888,1.59798285 191.17,1.63 C190.549719,1.61387834 189.949874,1.85237077 189.51,2.29 C188.611284,3.27209371 188.611284,4.77790629 189.51,5.76 C189.949874,6.19762923 190.549719,6.43612166 191.17,6.42 C191.882803,6.41363677 192.554885,6.08677763 193,5.53 L193.54,6.07 C193.267836,6.40012172 192.926452,6.66640141 192.54,6.85 C192.113137,7.04333025 191.648517,7.13898727 191.18,7.13 C190.345806,7.1465821 189.541015,6.8218102 188.951979,6.23088637 Z M195.91,7 L195.91,1.74 L194.23,1.74 L194.23,1 L198.35,1 L198.35,1.74 L196.68,1.74 L196.68,7 L195.91,7 Z M201.38,6.06 C201.193784,6.67345294 200.640501,7.10244721 200,7.13 C199.793302,7.12737494 199.589248,7.08316324 199.4,7 L199.6,6.29 C199.721524,6.36076788 199.859379,6.3986779 200,6.4 C200.146986,6.4110728 200.293775,6.37612316 200.42,6.3 C200.540478,6.19801238 200.633333,6.06732738 200.69,5.92 L200.91,5.44 L198.91,1.01 L199.82,1.01 L201.3,4.45 L202.74,1 L203.65,1 L201.38,6.06 Z M204.52,1 L208.86,1 L208.86,7 L208.09,7 L208.09,1.74 L205.29,1.74 L205.29,7 L204.52,7 L204.52,1 Z M210.23,1 L211,1 L211,3.57 L214,3.57 L214,1 L214.77,1 L214.77,7 L214,7 L214,4.29 L211,4.29 L211,7 L210.23,7 L210.23,1 Z M216.66,6.22 C215.480269,4.97123387 215.480269,3.01876613 216.66,1.77 C217.241998,1.18374669 218.033916,0.854032967 218.86,0.854032967 C219.686084,0.854032967 220.478002,1.18374669 221.06,1.77 C222.244766,3.01675984 222.244766,4.97324016 221.06,6.22 C219.84299,7.43022788 217.87701,7.43022788 216.66,6.22 Z M220.49,5.72 C221.375198,4.74417114 221.375198,3.25582886 220.49,2.28 C219.588676,1.38243493 218.131324,1.38243493 217.23,2.28 C216.344802,3.25582886 216.344802,4.74417114 217.23,5.72 C218.131324,6.61756507 219.588676,6.61756507 220.49,5.72 Z M225.09,7 L225.09,1 L227.26,1 C227.71056,0.991490808 228.147221,1.15613316 228.48,1.46 C228.818281,1.75357474 229.008772,2.18217927 229,2.63 C229.004693,2.89656215 228.927943,3.15821095 228.78,3.38 C228.633177,3.59543103 228.428727,3.76522834 228.19,3.87 C228.480067,3.96602197 228.734462,4.14723491 228.92,4.39 C229.112288,4.63500379 229.214658,4.93858387 229.21,5.25 C229.220336,5.71672584 229.022432,6.16384343 228.67,6.47 C228.321804,6.79118776 227.863665,6.96656897 227.39,6.96 L225.1,6.96 L225.09,7 Z M225.86,3.57 L227.26,3.57 C227.524639,3.58104763 227.780708,3.4749619 227.96,3.28 C228.138887,3.11779032 228.244182,2.88985362 228.251725,2.64849141 C228.259268,2.40712919 228.16841,2.17306271 228,2 C227.830816,1.80863046 227.585318,1.70237016 227.33,1.71 L225.9,1.71 L225.9,3.54 L225.86,3.57 Z M225.86,6.26 L227.41,6.26 C227.684219,6.26919977 227.948233,6.15552692 228.13,5.95 C228.306315,5.76712489 228.406424,5.524003 228.41,5.27 C228.41,4.71771525 227.962285,4.27 227.41,4.27 L225.89,4.27 L225.89,6.27 L225.86,6.26 Z M143.154366,1.09370551 C143.723138,0.906442702 144.369896,0.999139551 144.865662,1.37820678 L160.165565,9.7737746 L156,13.9393398 L143.154366,1.09370551 Z M161.523588,10.5370718 L166.817378,13.4321715 C168.394207,14.2916148 168.394207,15.7058887 166.817378,16.576211 L161.536643,19.4759829 L157.06066,15 L161.523588,10.5370718 Z M160.164447,20.2251072 L144.865662,28.6301758 C144.367607,29.0033264 143.72281,29.0924801 143.155693,28.904967 L156,16.0606602 L160.164447,20.2251072 Z M142.109184,27.8301555 C142.022421,27.5750949 141.986,27.3039755 142.004844,27.0309584 L142.004844,2.96654509 C141.989608,2.69555512 142.027079,2.42682549 142.112728,2.17338796 L154.93934,15 L142.109184,27.8301555 Z" transform="translate(-140)"/>
</svg>
