<svg width="32" height="32" viewBox="0 0 32 32" xmlns="http://www.w3.org/2000/svg">
    <path
        fill="#666"
        d="M9 30a4 4 0 0 1-4-4V6a4 4 0 0 1 4-4h9.757a4 4 0 0 1 2.829 1.172l4.242 4.242A4 4 0 0 1 27 10.243V26a4 4 0 0 1-4 4H9zm0-2h14a2 2 0 0 0 2-2V10.243a2 2 0 0 0-.586-1.415l-4.242-4.242A2 2 0 0 0 18.757 4H9a2 2 0 0 0-2 2v20a2 2 0 0 0 2 2zm4-3a3 3 0 0 1-3-3v-6a3 3 0 0 1 3-3h6a3 3 0 0 1 3 3v6a3 3 0 0 1-3 3h-6zm0-2h6a1 1 0 0 0 1-1v-6a1 1 0 0 0-1-1h-6a1 1 0 0 0-1 1v6a1 1 0 0 0 1 1z"
    />
</svg>
