<svg xmlns="http://www.w3.org/2000/svg" width="20" height="20" viewBox="0 0 20 20">
  <path fill="#999" fill-rule="evenodd" d="M189.497022,1.00599405 C192.076234,1.00599405 192.399649,1.01692659 193.412605,1.06314484 C194.42345,1.10925 195.113821,1.26980754 195.717901,1.50459325 C196.342413,1.74725794 196.872038,2.07199206 197.400042,2.59995833 C197.928008,3.1279623 198.252742,3.6575873 198.495444,4.28209921 C198.730192,4.88617857 198.89075,5.5765496 198.936855,6.58739484 C198.983073,7.60035119 198.994006,7.92376587 198.994006,10.5030159 C198.994006,13.0822282 198.983073,13.4056429 198.936855,14.4185992 C198.89075,15.4294444 198.730192,16.1198155 198.495444,16.7238948 C198.252742,17.3484067 197.928008,17.8780317 197.400042,18.4060357 C196.872038,18.934002 196.342413,19.2587361 195.717901,19.5014385 C195.113821,19.7361865 194.42345,19.896744 193.412605,19.9428492 C192.399649,19.9890675 192.076234,20 189.497022,20 C186.917772,20 186.594357,19.9890675 185.581401,19.9428492 C184.570556,19.896744 183.880185,19.7361865 183.276105,19.5014385 C182.651593,19.2587361 182.121968,18.934002 181.593964,18.4060357 C181.065998,17.8780317 180.741264,17.3484067 180.498599,16.7238948 C180.263813,16.1198155 180.103256,15.4294444 180.057151,14.4185992 C180.010933,13.4056429 180,13.0822282 180,10.5030159 C180,7.92376587 180.010933,7.60035119 180.057151,6.58739484 C180.103256,5.5765496 180.263813,4.88617857 180.498599,4.28209921 C180.741264,3.6575873 181.065998,3.1279623 181.593964,2.59995833 C182.121968,2.07199206 182.651593,1.74725794 183.276105,1.50459325 C183.880185,1.26980754 184.570556,1.10925 185.581401,1.06314484 C186.594357,1.01692659 186.917772,1.00599405 189.497022,1.00599405 Z M189.497022,2.7171627 C186.9612,2.7171627 186.660819,2.72685119 185.659399,2.77254167 C184.73345,2.81476389 184.230591,2.96947817 183.895942,3.0995377 C183.452647,3.27181944 183.136282,3.47761508 182.80397,3.80996429 C182.471621,4.14227579 182.265825,4.45864087 182.093544,4.90193651 C181.963484,5.23658532 181.80877,5.73944444 181.766548,6.66539286 C181.720857,7.66681349 181.711169,7.96719444 181.711169,10.5030159 C181.711169,13.0387996 181.720857,13.3391806 181.766548,14.3406012 C181.80877,15.2665496 181.963484,15.7694087 182.093544,16.1040575 C182.265825,16.5473532 182.471659,16.8637183 182.80397,17.1960298 C183.136282,17.528379 183.452647,17.7341746 183.895942,17.9064563 C184.230591,18.0365159 184.73345,18.1912302 185.659399,18.2334524 C186.660706,18.2791429 186.961012,18.2888313 189.497022,18.2888313 C192.032994,18.2888313 192.333337,18.2791429 193.334607,18.2334524 C194.260556,18.1912302 194.763415,18.0365159 195.098063,17.9064563 C195.541359,17.7341746 195.857724,17.528379 196.190036,17.1960298 C196.522385,16.8637183 196.728181,16.5473532 196.900462,16.1040575 C197.030522,15.7694087 197.185236,15.2665496 197.227458,14.3406012 C197.273149,13.3391806 197.282837,13.0387996 197.282837,10.5030159 C197.282837,7.96719444 197.273149,7.66681349 197.227458,6.66539286 C197.185236,5.73944444 197.030522,5.23658532 196.900462,4.90193651 C196.728181,4.45864087 196.522385,4.14227579 196.190036,3.80996429 C195.857724,3.47761508 195.541359,3.27181944 195.098063,3.0995377 C194.763415,2.96947817 194.260556,2.81476389 193.334607,2.77254167 C192.333187,2.72685119 192.032806,2.7171627 189.497022,2.7171627 Z M189.497022,13.6686647 C191.245361,13.6686647 192.662671,12.2513552 192.662671,10.5030159 C192.662671,8.75463889 191.245361,7.33732937 189.497022,7.33732937 C187.748645,7.33732937 186.331335,8.75463889 186.331335,10.5030159 C186.331335,12.2513552 187.748645,13.6686647 189.497022,13.6686647 Z M189.497022,5.62616071 C192.190423,5.62616071 194.373839,7.80957738 194.373839,10.5030159 C194.373839,13.1964167 192.190423,15.3798333 189.497022,15.3798333 C186.803583,15.3798333 184.620167,13.1964167 184.620167,10.5030159 C184.620167,7.80957738 186.803583,5.62616071 189.497022,5.62616071 Z M195.706177,5.43348413 C195.706177,6.06289683 195.195929,6.57310714 194.566516,6.57310714 C193.937141,6.57310714 193.426893,6.06289683 193.426893,5.43348413 C193.426893,4.80407143 193.937141,4.29382341 194.566516,4.29382341 C195.195929,4.29382341 195.706177,4.80407143 195.706177,5.43348413 Z" transform="translate(-179)"/>
</svg>
