<svg xmlns="http://www.w3.org/2000/svg" width="20" height="20" viewBox="0 0 20 20">
  <path fill="#999" fill-rule="evenodd" d="M43.1223203,13.2901775 L45.3642506,15.5321079 C45.823484,15.9903939 45.823484,16.7345461 45.3642506,17.1933058 C44.905491,17.6520655 44.1618124,17.6520655 43.7032895,17.1933058 L41.4994905,14.9902172 L39.2975861,17.1933058 C39.067851,17.4223304 38.7670638,17.5371979 38.4662767,17.5371979 C38.1659631,17.5371979 37.8654128,17.4223304 37.6359145,17.1933058 C37.1771549,16.7345461 37.1771549,15.9908675 37.6354408,15.5321079 L39.8771344,13.2901775 C39.0609827,13.1042579 38.2737255,12.780734 37.5487573,12.3257638 C36.9999983,11.9799769 36.8349206,11.2550087 37.1809443,10.7057761 C37.5257838,10.1558329 38.250752,9.99051832 38.8004583,10.3363052 C40.4419985,11.3689289 42.5567456,11.3694026 44.1992332,10.3363052 C44.7489395,9.99051832 45.4739077,10.1558329 45.8192209,10.7057761 C46.1650077,11.254535 45.9996932,11.9799769 45.4509342,12.3257638 C44.725966,12.7812077 43.9387088,13.1042579 43.1223203,13.2901775 Z M41.4999642,10.019176 C39.2885862,10.019176 37.4900209,8.22108438 37.4900209,6.01041694 C37.4900209,3.79880214 39.2885862,2 41.4999642,2 C43.7118158,2 45.5099074,3.79880214 45.5099074,6.01041694 C45.5099074,8.22108438 43.7118158,10.019176 41.4999642,10.019176 Z M41.4999642,4.35016638 C40.5852869,4.35016638 39.8397136,5.09479231 39.8397136,6.01041694 C39.8397136,6.92509421 40.5852869,7.66995698 41.4999642,7.66995698 C42.4155888,7.66995698 43.1602147,6.92509421 43.1602147,6.01041694 C43.1602147,5.09479231 42.4155888,4.35016638 41.4999642,4.35016638 Z" transform="translate(-32)"/>
</svg>
