<svg xmlns="http://www.w3.org/2000/svg" width="136" height="30" viewBox="0 0 136 30">
  <path fill="#999" fill-rule="evenodd" d="M299,3.01923077 L299,13 L288,13 L288,4.5 L299,3.01923077 Z M300,2.88461538 L314,1 L314,13 L300,13 L300,2.88461538 Z M314,14 L314,27 L300,25.0447717 L300,14 L314,14 Z M299,24.9051126 L288,23.3688618 L288,14 L299,14 L299,24.9051126 Z M329.110733,8.13983371 C328.449735,8.62622827 327.489418,8.97543462 326.504157,8.97543462 C324.084656,8.97543462 322.525699,7.17951625 322.525699,4.52305367 C322.525699,1.85411943 324.109599,0.0457294029 326.529101,0.0457294029 C327.551776,0.0457294029 328.312547,0.307634165 328.973545,0.756613757 L328.798942,1.95389267 C328.175359,1.47996977 327.439531,1.11829176 326.516629,1.11829176 C324.770597,1.11829176 323.73545,2.44028723 323.73545,4.51058201 C323.73545,6.5808768 324.783069,7.8904006 326.516629,7.8904006 C327.439531,7.8904006 328.250189,7.5287226 328.93613,7.02985639 L329.110733,8.13983371 Z M334.240741,8.90060469 L331.621693,5.8824641 L331.621693,8.8133031 L330.511716,8.8133031 L330.511716,2.86432351 L331.621693,2.86432351 L331.621693,5.5457294 L333.928949,2.86432351 L335.28836,2.86432351 L332.756614,5.68291761 L335.487906,8.71352986 L334.240741,8.90060469 Z M340.804989,8.8133031 L339.907029,8.8133031 L339.782313,8.01511716 C339.30839,8.50151172 338.659864,8.93801965 337.687075,8.93801965 C336.614512,8.93801965 335.941043,8.28949358 335.941043,7.27928949 C335.941043,5.79516251 337.213152,5.20899471 339.695011,4.94708995 L339.695011,4.69765684 C339.695011,3.94935752 339.246032,3.68745276 338.560091,3.68745276 C337.836735,3.68745276 337.150794,3.91194255 336.502268,4.19879063 L336.352608,3.23847317 C337.063492,2.95162509 337.736961,2.73960695 338.659864,2.73960695 C340.106576,2.73960695 340.804989,3.32577475 340.804989,4.64777022 L340.804989,8.8133031 Z M339.695011,7.17951625 L339.695011,5.79516251 C337.5,6.00718065 337.038549,6.60582011 337.038549,7.21693122 C337.038549,7.70332577 337.362812,8.01511716 337.924036,8.01511716 C338.572562,8.01511716 339.196145,7.69085412 339.695011,7.17951625 Z M342.1935,2.86432351 L343.303477,2.86432351 L343.303477,4.7101285 C343.303477,5.53325775 343.739985,5.90740741 344.563114,5.90740741 C344.949735,5.90740741 345.323885,5.86999244 345.73545,5.78269085 L345.73545,2.86432351 L346.845427,2.86432351 L346.845427,8.8133031 L345.73545,8.8133031 L345.73545,6.75547997 C345.298942,6.85525321 344.862434,6.90513983 344.438398,6.90513983 C342.941799,6.90513983 342.1935,6.19425548 342.1935,4.73507181 L342.1935,2.86432351 Z M353.010582,8.8133031 L352.112623,8.8133031 L351.987906,8.01511716 C351.513983,8.50151172 350.865457,8.93801965 349.892668,8.93801965 C348.820106,8.93801965 348.146636,8.28949358 348.146636,7.27928949 C348.146636,5.79516251 349.418745,5.20899471 351.900605,4.94708995 L351.900605,4.69765684 C351.900605,3.94935752 351.451625,3.68745276 350.765684,3.68745276 C350.042328,3.68745276 349.356387,3.91194255 348.707861,4.19879063 L348.558201,3.23847317 C349.269085,2.95162509 349.942555,2.73960695 350.865457,2.73960695 C352.312169,2.73960695 353.010582,3.32577475 353.010582,4.64777022 L353.010582,8.8133031 Z M351.900605,7.17951625 L351.900605,5.79516251 C349.705593,6.00718065 349.244142,6.60582011 349.244142,7.21693122 C349.244142,7.70332577 349.568405,8.01511716 350.12963,8.01511716 C350.778156,8.01511716 351.401738,7.69085412 351.900605,7.17951625 Z M356.007937,8.8133031 L356.007937,3.83711262 L354.012472,3.83711262 L354.012472,2.86432351 L359.05102,2.86432351 L359.20068,3.83711262 L357.117914,3.83711262 L357.117914,8.8133031 L356.007937,8.8133031 Z M364.667423,6.81783825 C364.667423,8.07747543 363.707105,8.8133031 362.260393,8.8133031 L360.215042,8.8133031 L360.215042,2.86432351 L361.325019,2.86432351 L361.325019,4.88473167 L362.360166,4.88473167 C363.869237,4.88473167 364.667423,5.59561602 364.667423,6.81783825 Z M363.59486,6.8303099 C363.59486,6.18178382 363.195767,5.80763416 362.31028,5.80763416 L361.325019,5.80763416 L361.325019,7.8904006 L362.285336,7.8904006 C363.133409,7.8904006 363.59486,7.49130763 363.59486,6.8303099 Z M373.493197,8.8133031 L372.38322,8.8133031 L372.38322,6.21919879 L369.626984,6.21919879 L369.626984,8.8133031 L368.517007,8.8133031 L368.517007,2.86432351 L369.626984,2.86432351 L369.626984,5.28382464 L372.38322,5.28382464 L372.38322,2.86432351 L373.493197,2.86432351 L373.493197,8.8133031 Z M379.658352,8.8133031 L378.760393,8.8133031 L378.635676,8.01511716 C378.161754,8.50151172 377.513228,8.93801965 376.540438,8.93801965 C375.467876,8.93801965 374.794407,8.28949358 374.794407,7.27928949 C374.794407,5.79516251 376.066515,5.20899471 378.548375,4.94708995 L378.548375,4.69765684 C378.548375,3.94935752 378.099395,3.68745276 377.413454,3.68745276 C376.690098,3.68745276 376.004157,3.91194255 375.355631,4.19879063 L375.205971,3.23847317 C375.916856,2.95162509 376.590325,2.73960695 377.513228,2.73960695 C378.95994,2.73960695 379.658352,3.32577475 379.658352,4.64777022 L379.658352,8.8133031 Z M378.548375,7.17951625 L378.548375,5.79516251 C376.353364,6.00718065 375.891912,6.60582011 375.891912,7.21693122 C375.891912,7.70332577 376.216175,8.01511716 376.7774,8.01511716 C377.425926,8.01511716 378.049509,7.69085412 378.548375,7.17951625 Z M340.535601,13.4111867 L336.557974,26.6635676 L335.047241,26.6635676 L331.471202,15.9163265 L327.895163,26.6635676 L326.403553,26.6635676 L322.502419,13.6597884 L324.3,13.2773243 L327.244974,23.7759637 L330.610658,13.4111867 L332.408239,13.4111867 L335.773923,23.7759637 L338.661527,13.4111867 L340.535601,13.4111867 Z M343.027438,13.4876795 C343.620257,13.4876795 344.098337,13.9848828 344.098337,14.5777022 C344.098337,15.1705215 343.620257,15.6486017 343.027438,15.6486017 C342.434618,15.6486017 341.937415,15.1705215 341.937415,14.5777022 C341.937415,13.9848828 342.434618,13.4876795 343.027438,13.4876795 Z M343.868859,26.606198 L342.166893,26.606198 L342.166893,17.4844293 L343.868859,17.4844293 L343.868859,26.606198 Z M353.952608,26.606198 L352.250642,26.606198 L352.250642,20.3911565 C352.250642,19.4541194 351.849055,18.8230537 350.854649,18.8230537 C349.955858,18.8230537 349.037944,19.415873 348.215646,20.2955404 L348.215646,26.606198 L346.513681,26.606198 L346.513681,17.4844293 L347.871429,17.4844293 L348.081784,18.8039305 C348.942328,18.0198791 350.013228,17.2931973 351.313605,17.2931973 C353.034694,17.2931973 353.952608,18.3258503 353.952608,19.970446 L353.952608,26.606198 Z M364.036357,26.606198 L362.678609,26.606198 L362.468254,25.2866969 C361.779819,26.1089947 360.842782,26.7974301 359.504157,26.7974301 C357.534467,26.7974301 355.908995,25.3631897 355.908995,22.3034769 C355.908995,18.9760393 357.821315,17.3696901 360.039607,17.3696901 C360.938398,17.3696901 361.760695,17.5417989 362.334392,17.7712774 L362.334392,13.066969 L364.036357,12.7992441 L364.036357,26.606198 Z M362.334392,23.6803477 L362.334392,19.320257 C361.626833,18.9569161 361.07226,18.8039305 360.096977,18.8039305 C358.662736,18.8039305 357.630083,19.970446 357.630083,22.2269841 C357.630083,24.2349206 358.528874,25.2866969 359.752759,25.2866969 C360.804535,25.2866969 361.60771,24.6556311 362.334392,23.6803477 Z M370.218972,17.2931973 C372.666742,17.2931973 374.464324,19.0525321 374.464324,22.0548753 C374.464324,25.0572184 372.666742,26.7974301 370.218972,26.7974301 C367.790325,26.7974301 366.03099,25.0572184 366.03099,22.0548753 C366.03099,19.0525321 367.790325,17.2931973 370.218972,17.2931973 Z M370.218972,25.3823129 C371.901814,25.3823129 372.743235,23.9671958 372.743235,22.0548753 C372.743235,20.1808012 371.863568,18.7083144 370.218972,18.7083144 C368.574376,18.7083144 367.752079,20.1425548 367.752079,22.0548753 C367.752079,23.9289494 368.612623,25.3823129 370.218972,25.3823129 Z M388.143235,17.4844293 L385.217385,26.6444444 L383.783144,26.6444444 L381.756085,19.7600907 L379.748148,26.6444444 L378.333031,26.6444444 L375.407181,17.6182918 L377.070899,17.3505669 L379.059713,24.2349206 L381.067649,17.4844293 L382.50189,17.4844293 L384.509826,24.2349206 L386.44127,17.4844293 L388.143235,17.4844293 Z M392.776871,21.098715 C395.033409,21.6724112 396.046939,22.3226002 396.046939,24.0628118 C396.046939,25.7265306 394.80393,26.7974301 392.451776,26.7974301 C391.247014,26.7974301 389.90839,26.3767196 389.124339,25.9368859 L389.37294,24.3305367 C390.233485,24.923356 391.34263,25.3823129 392.585639,25.3823129 C393.752154,25.3823129 394.44059,24.9424792 394.44059,24.177551 C394.44059,23.33613 393.924263,23.0301587 392.279667,22.6285714 C390.137868,22.0931217 389.277324,21.4429327 389.277324,19.8174603 C389.277324,18.3640967 390.501209,17.2931973 392.490023,17.2931973 C393.618292,17.2931973 394.631822,17.5226757 395.492366,17.9051398 L395.224641,19.511489 C394.421466,19.0525321 393.407937,18.7274376 392.451776,18.7274376 C391.419123,18.7274376 390.883673,19.1290249 390.883673,19.7792139 C390.883673,20.3911565 391.34263,20.7353741 392.776871,21.098715 Z" transform="translate(-288)"/>
</svg>
