<svg xmlns="http://www.w3.org/2000/svg" width="20" height="20" viewBox="0 0 20 20">
  <path fill="#999" fill-rule="evenodd" d="M83.8102697,5.90259098 C83.8102697,5.90259098 84,7.45066447 84,8.99871923 L84,10.4500241 C84,11.9980601 83.8102697,13.5461149 83.8102697,13.5461149 C83.8102697,13.5461149 83.6246317,14.8643933 83.05492,15.4449115 C82.3324196,16.2068498 81.5225689,16.2106142 81.1511812,16.2552248 C78.4924088,16.4487246 74.5,16.4547738 74.5,16.4547738 C74.5,16.4547738 69.560093,16.4093579 68.0400744,16.2626037 C67.6172177,16.1827466 66.6678222,16.2068498 65.9450614,15.4449115 C65.3753869,14.8643933 65.1900093,13.5461149 65.1900093,13.5461149 C65.1900093,13.5461149 65,11.9980601 65,10.4500241 L65,8.99871923 C65,7.45066447 65.1900093,5.90259098 65.1900093,5.90259098 C65.1900093,5.90259098 65.3753869,4.5843313 65.9450614,4.0038131 C66.6678222,3.24189351 67.4773753,3.23811041 67.8487816,3.19351855 C70.507647,3 74.495852,3 74.495852,3 L74.5041108,3 C74.5041108,3 78.4924088,3 81.1511812,3.19351855 C81.5225689,3.23811041 82.3324196,3.24189351 83.05492,4.0038131 C83.6246317,4.5843313 83.8102697,5.90259098 83.8102697,5.90259098 Z M72.5384679,12.2087337 L77.6714719,9.53060028 L72.5375936,6.83373864 L72.5384679,12.2087337 Z" transform="translate(-65)"/>
</svg>
